<mxfile host="Electron" modified="2024-09-09T16:37:22.210Z" agent="Mozilla/5.0 (Windows NT 10.0; Win64; x64) AppleWebKit/537.36 (KHTML, like Gecko) draw.io/21.1.2 Chrome/106.0.5249.199 Electron/21.4.3 Safari/537.36" etag="dDl4y9wVHOIONs_8T8WK" version="21.1.2" type="device" pages="3">
  <diagram name="ch. 4 - sync" id="pWodS_e5N2gBe3Vhcsnj">
    <mxGraphModel dx="1352" dy="1056" grid="0" gridSize="10" guides="1" tooltips="1" connect="1" arrows="1" fold="1" page="0" pageScale="1" pageWidth="850" pageHeight="1100" math="0" shadow="0">
      <root>
        <mxCell id="0" />
        <mxCell id="1" parent="0" />
        <mxCell id="hR4ZYZzlDSfTuO1KXUen-3" style="edgeStyle=orthogonalEdgeStyle;rounded=0;orthogonalLoop=1;jettySize=auto;html=1;curved=1;" parent="1" source="hR4ZYZzlDSfTuO1KXUen-8" target="hR4ZYZzlDSfTuO1KXUen-2" edge="1">
          <mxGeometry relative="1" as="geometry">
            <mxPoint x="120" y="270" as="sourcePoint" />
          </mxGeometry>
        </mxCell>
        <mxCell id="hR4ZYZzlDSfTuO1KXUen-5" style="edgeStyle=orthogonalEdgeStyle;rounded=0;orthogonalLoop=1;jettySize=auto;html=1;curved=1;" parent="1" source="hR4ZYZzlDSfTuO1KXUen-2" target="hR4ZYZzlDSfTuO1KXUen-4" edge="1">
          <mxGeometry relative="1" as="geometry" />
        </mxCell>
        <mxCell id="hR4ZYZzlDSfTuO1KXUen-2" value="connect to server" style="rounded=0;whiteSpace=wrap;html=1;fillColor=#fff2cc;strokeColor=#d6b656;" parent="1" vertex="1">
          <mxGeometry x="60" y="300" width="120" height="40" as="geometry" />
        </mxCell>
        <mxCell id="hR4ZYZzlDSfTuO1KXUen-7" style="edgeStyle=orthogonalEdgeStyle;rounded=0;orthogonalLoop=1;jettySize=auto;html=1;curved=1;" parent="1" source="hR4ZYZzlDSfTuO1KXUen-4" target="hR4ZYZzlDSfTuO1KXUen-6" edge="1">
          <mxGeometry relative="1" as="geometry" />
        </mxCell>
        <mxCell id="hR4ZYZzlDSfTuO1KXUen-4" value="&lt;b&gt;write &lt;/b&gt;&quot;login&quot;" style="rounded=0;whiteSpace=wrap;html=1;fillColor=#fff2cc;strokeColor=#d6b656;" parent="1" vertex="1">
          <mxGeometry x="60" y="370" width="120" height="40" as="geometry" />
        </mxCell>
        <mxCell id="hR4ZYZzlDSfTuO1KXUen-13" style="edgeStyle=orthogonalEdgeStyle;rounded=0;orthogonalLoop=1;jettySize=auto;html=1;curved=1;" parent="1" source="hR4ZYZzlDSfTuO1KXUen-6" target="hR4ZYZzlDSfTuO1KXUen-10" edge="1">
          <mxGeometry relative="1" as="geometry" />
        </mxCell>
        <mxCell id="hR4ZYZzlDSfTuO1KXUen-14" style="edgeStyle=orthogonalEdgeStyle;shape=connector;curved=1;rounded=0;orthogonalLoop=1;jettySize=auto;html=1;labelBackgroundColor=default;strokeColor=default;fontFamily=Helvetica;fontSize=11;fontColor=default;endArrow=classic;" parent="1" source="hR4ZYZzlDSfTuO1KXUen-6" target="hR4ZYZzlDSfTuO1KXUen-11" edge="1">
          <mxGeometry relative="1" as="geometry" />
        </mxCell>
        <mxCell id="hR4ZYZzlDSfTuO1KXUen-15" style="edgeStyle=orthogonalEdgeStyle;shape=connector;curved=1;rounded=0;orthogonalLoop=1;jettySize=auto;html=1;labelBackgroundColor=default;strokeColor=default;fontFamily=Helvetica;fontSize=11;fontColor=default;endArrow=classic;" parent="1" source="hR4ZYZzlDSfTuO1KXUen-6" target="hR4ZYZzlDSfTuO1KXUen-12" edge="1">
          <mxGeometry relative="1" as="geometry" />
        </mxCell>
        <mxCell id="hR4ZYZzlDSfTuO1KXUen-6" value="&lt;b&gt;read &lt;/b&gt;answer" style="rounded=0;whiteSpace=wrap;html=1;fillColor=#fff2cc;strokeColor=#d6b656;" parent="1" vertex="1">
          <mxGeometry x="60" y="440" width="120" height="40" as="geometry" />
        </mxCell>
        <mxCell id="hR4ZYZzlDSfTuO1KXUen-8" value="start" style="rounded=1;whiteSpace=wrap;html=1;arcSize=50;fillColor=#fff2cc;strokeColor=#d6b656;" parent="1" vertex="1">
          <mxGeometry x="70" y="230" width="100" height="40" as="geometry" />
        </mxCell>
        <mxCell id="hR4ZYZzlDSfTuO1KXUen-28" style="edgeStyle=orthogonalEdgeStyle;shape=connector;curved=1;rounded=0;orthogonalLoop=1;jettySize=auto;html=1;entryX=0;entryY=0.25;entryDx=0;entryDy=0;labelBackgroundColor=default;strokeColor=default;fontFamily=Helvetica;fontSize=11;fontColor=default;endArrow=classic;" parent="1" source="hR4ZYZzlDSfTuO1KXUen-10" target="hR4ZYZzlDSfTuO1KXUen-26" edge="1">
          <mxGeometry relative="1" as="geometry">
            <Array as="points">
              <mxPoint x="-5" y="750" />
            </Array>
          </mxGeometry>
        </mxCell>
        <mxCell id="hR4ZYZzlDSfTuO1KXUen-10" value="answer is &quot;login&quot;" style="rounded=1;whiteSpace=wrap;html=1;arcSize=50;fillColor=#fff2cc;strokeColor=#d6b656;" parent="1" vertex="1">
          <mxGeometry x="-40" y="520" width="70" height="40" as="geometry" />
        </mxCell>
        <mxCell id="hR4ZYZzlDSfTuO1KXUen-24" style="edgeStyle=orthogonalEdgeStyle;shape=connector;curved=1;rounded=0;orthogonalLoop=1;jettySize=auto;html=1;labelBackgroundColor=default;strokeColor=default;fontFamily=Helvetica;fontSize=11;fontColor=default;endArrow=classic;" parent="1" source="hR4ZYZzlDSfTuO1KXUen-11" target="hR4ZYZzlDSfTuO1KXUen-23" edge="1">
          <mxGeometry relative="1" as="geometry" />
        </mxCell>
        <mxCell id="hR4ZYZzlDSfTuO1KXUen-11" value="answer is &quot;ping&quot;" style="rounded=1;whiteSpace=wrap;html=1;arcSize=50;fillColor=#fff2cc;strokeColor=#d6b656;" parent="1" vertex="1">
          <mxGeometry x="50" y="520" width="70" height="40" as="geometry" />
        </mxCell>
        <mxCell id="hR4ZYZzlDSfTuO1KXUen-21" style="edgeStyle=orthogonalEdgeStyle;shape=connector;curved=1;rounded=0;orthogonalLoop=1;jettySize=auto;html=1;labelBackgroundColor=default;strokeColor=default;fontFamily=Helvetica;fontSize=11;fontColor=default;endArrow=classic;" parent="1" source="hR4ZYZzlDSfTuO1KXUen-12" target="hR4ZYZzlDSfTuO1KXUen-20" edge="1">
          <mxGeometry relative="1" as="geometry" />
        </mxCell>
        <mxCell id="hR4ZYZzlDSfTuO1KXUen-12" value="answer is &quot;clients&quot;" style="rounded=1;whiteSpace=wrap;html=1;arcSize=50;fillColor=#fff2cc;strokeColor=#d6b656;" parent="1" vertex="1">
          <mxGeometry x="150" y="520" width="70" height="40" as="geometry" />
        </mxCell>
        <mxCell id="hR4ZYZzlDSfTuO1KXUen-17" style="edgeStyle=orthogonalEdgeStyle;shape=connector;curved=1;rounded=0;orthogonalLoop=1;jettySize=auto;html=1;labelBackgroundColor=default;strokeColor=default;fontFamily=Helvetica;fontSize=11;fontColor=default;endArrow=classic;exitX=0.5;exitY=0;exitDx=0;exitDy=0;entryX=1;entryY=0.5;entryDx=0;entryDy=0;" parent="1" source="hR4ZYZzlDSfTuO1KXUen-16" target="hR4ZYZzlDSfTuO1KXUen-6" edge="1">
          <mxGeometry relative="1" as="geometry" />
        </mxCell>
        <mxCell id="hR4ZYZzlDSfTuO1KXUen-16" value="&lt;b&gt;write &lt;/b&gt;&quot;ping&quot;" style="rounded=0;whiteSpace=wrap;html=1;fillColor=#fff2cc;strokeColor=#d6b656;" parent="1" vertex="1">
          <mxGeometry x="260" y="510" width="80" height="40" as="geometry" />
        </mxCell>
        <mxCell id="hR4ZYZzlDSfTuO1KXUen-19" style="edgeStyle=orthogonalEdgeStyle;shape=connector;curved=1;rounded=0;orthogonalLoop=1;jettySize=auto;html=1;labelBackgroundColor=default;strokeColor=default;fontFamily=Helvetica;fontSize=11;fontColor=default;endArrow=classic;" parent="1" source="hR4ZYZzlDSfTuO1KXUen-18" target="hR4ZYZzlDSfTuO1KXUen-16" edge="1">
          <mxGeometry relative="1" as="geometry" />
        </mxCell>
        <mxCell id="hR4ZYZzlDSfTuO1KXUen-18" value="sleep a bit" style="rounded=0;whiteSpace=wrap;html=1;fillColor=#fff2cc;strokeColor=#d6b656;" parent="1" vertex="1">
          <mxGeometry x="260" y="590" width="80" height="40" as="geometry" />
        </mxCell>
        <mxCell id="hR4ZYZzlDSfTuO1KXUen-22" style="edgeStyle=orthogonalEdgeStyle;shape=connector;curved=1;rounded=0;orthogonalLoop=1;jettySize=auto;html=1;labelBackgroundColor=default;strokeColor=default;fontFamily=Helvetica;fontSize=11;fontColor=default;endArrow=classic;" parent="1" source="hR4ZYZzlDSfTuO1KXUen-20" target="hR4ZYZzlDSfTuO1KXUen-18" edge="1">
          <mxGeometry relative="1" as="geometry" />
        </mxCell>
        <mxCell id="hR4ZYZzlDSfTuO1KXUen-20" value="dump list of clients" style="rounded=0;whiteSpace=wrap;html=1;fillColor=#fff2cc;strokeColor=#d6b656;" parent="1" vertex="1">
          <mxGeometry x="145" y="590" width="80" height="40" as="geometry" />
        </mxCell>
        <mxCell id="hR4ZYZzlDSfTuO1KXUen-25" value="no" style="edgeStyle=orthogonalEdgeStyle;shape=connector;curved=1;rounded=0;orthogonalLoop=1;jettySize=auto;html=1;labelBackgroundColor=default;strokeColor=default;fontFamily=Helvetica;fontSize=11;fontColor=default;endArrow=classic;entryX=0.5;entryY=1;entryDx=0;entryDy=0;" parent="1" source="hR4ZYZzlDSfTuO1KXUen-23" target="hR4ZYZzlDSfTuO1KXUen-18" edge="1">
          <mxGeometry x="-0.7561" relative="1" as="geometry">
            <mxPoint as="offset" />
          </mxGeometry>
        </mxCell>
        <mxCell id="hR4ZYZzlDSfTuO1KXUen-27" value="yes" style="edgeStyle=orthogonalEdgeStyle;shape=connector;curved=1;rounded=0;orthogonalLoop=1;jettySize=auto;html=1;labelBackgroundColor=default;strokeColor=default;fontFamily=Helvetica;fontSize=11;fontColor=default;endArrow=classic;" parent="1" source="hR4ZYZzlDSfTuO1KXUen-23" target="hR4ZYZzlDSfTuO1KXUen-26" edge="1">
          <mxGeometry relative="1" as="geometry" />
        </mxCell>
        <mxCell id="hR4ZYZzlDSfTuO1KXUen-23" value="client list changed" style="rhombus;whiteSpace=wrap;html=1;fontFamily=Helvetica;fontSize=11;fillColor=#fff2cc;strokeColor=#d6b656;" parent="1" vertex="1">
          <mxGeometry x="45" y="620" width="80" height="80" as="geometry" />
        </mxCell>
        <mxCell id="hR4ZYZzlDSfTuO1KXUen-29" style="edgeStyle=orthogonalEdgeStyle;shape=connector;curved=1;rounded=0;orthogonalLoop=1;jettySize=auto;html=1;entryX=1;entryY=0.25;entryDx=0;entryDy=0;labelBackgroundColor=default;strokeColor=default;fontFamily=Helvetica;fontSize=11;fontColor=default;endArrow=classic;" parent="1" source="hR4ZYZzlDSfTuO1KXUen-26" target="hR4ZYZzlDSfTuO1KXUen-6" edge="1">
          <mxGeometry relative="1" as="geometry">
            <Array as="points">
              <mxPoint x="380" y="770" />
              <mxPoint x="380" y="450" />
            </Array>
          </mxGeometry>
        </mxCell>
        <mxCell id="hR4ZYZzlDSfTuO1KXUen-26" value="&lt;b&gt;write &lt;/b&gt;&quot;ask_clients&lt;span style=&quot;background-color: initial;&quot;&gt;&quot;&lt;/span&gt;" style="rounded=0;whiteSpace=wrap;html=1;fillColor=#fff2cc;strokeColor=#d6b656;" parent="1" vertex="1">
          <mxGeometry x="45" y="740" width="80" height="40" as="geometry" />
        </mxCell>
        <mxCell id="hR4ZYZzlDSfTuO1KXUen-31" value="Synchronous client" style="text;html=1;strokeColor=none;fillColor=none;align=center;verticalAlign=middle;whiteSpace=wrap;rounded=0;fontSize=11;fontFamily=Helvetica;fontColor=default;" parent="1" vertex="1">
          <mxGeometry x="65" y="180" width="155" height="30" as="geometry" />
        </mxCell>
        <mxCell id="hR4ZYZzlDSfTuO1KXUen-32" style="edgeStyle=orthogonalEdgeStyle;rounded=0;orthogonalLoop=1;jettySize=auto;html=1;curved=1;" parent="1" source="hR4ZYZzlDSfTuO1KXUen-41" target="hR4ZYZzlDSfTuO1KXUen-34" edge="1">
          <mxGeometry relative="1" as="geometry">
            <mxPoint x="780" y="270" as="sourcePoint" />
          </mxGeometry>
        </mxCell>
        <mxCell id="hR4ZYZzlDSfTuO1KXUen-33" style="edgeStyle=orthogonalEdgeStyle;rounded=0;orthogonalLoop=1;jettySize=auto;html=1;curved=1;" parent="1" source="hR4ZYZzlDSfTuO1KXUen-34" target="hR4ZYZzlDSfTuO1KXUen-36" edge="1">
          <mxGeometry relative="1" as="geometry" />
        </mxCell>
        <mxCell id="hR4ZYZzlDSfTuO1KXUen-34" value="wait for new client" style="rounded=0;whiteSpace=wrap;html=1;fillColor=#fff2cc;strokeColor=#d6b656;" parent="1" vertex="1">
          <mxGeometry x="720" y="300" width="120" height="40" as="geometry" />
        </mxCell>
        <mxCell id="hR4ZYZzlDSfTuO1KXUen-35" style="edgeStyle=orthogonalEdgeStyle;rounded=0;orthogonalLoop=1;jettySize=auto;html=1;entryX=1;entryY=0.5;entryDx=0;entryDy=0;curved=1;" parent="1" source="hR4ZYZzlDSfTuO1KXUen-36" target="hR4ZYZzlDSfTuO1KXUen-34" edge="1">
          <mxGeometry relative="1" as="geometry">
            <Array as="points">
              <mxPoint x="860" y="390" />
              <mxPoint x="860" y="320" />
            </Array>
          </mxGeometry>
        </mxCell>
        <mxCell id="hR4ZYZzlDSfTuO1KXUen-36" value="add client to existing clients" style="rounded=0;whiteSpace=wrap;html=1;fillColor=#fff2cc;strokeColor=#d6b656;" parent="1" vertex="1">
          <mxGeometry x="720" y="370" width="120" height="40" as="geometry" />
        </mxCell>
        <mxCell id="hR4ZYZzlDSfTuO1KXUen-41" value="thread 1" style="rounded=1;whiteSpace=wrap;html=1;arcSize=50;fillColor=#fff2cc;strokeColor=#d6b656;" parent="1" vertex="1">
          <mxGeometry x="730" y="230" width="100" height="40" as="geometry" />
        </mxCell>
        <mxCell id="hR4ZYZzlDSfTuO1KXUen-68" style="edgeStyle=orthogonalEdgeStyle;shape=connector;curved=1;rounded=0;orthogonalLoop=1;jettySize=auto;html=1;labelBackgroundColor=default;strokeColor=default;fontFamily=Helvetica;fontSize=11;fontColor=default;endArrow=classic;" parent="1" source="hR4ZYZzlDSfTuO1KXUen-64" target="hR4ZYZzlDSfTuO1KXUen-65" edge="1">
          <mxGeometry relative="1" as="geometry" />
        </mxCell>
        <mxCell id="hR4ZYZzlDSfTuO1KXUen-64" value="thread 2" style="rounded=1;whiteSpace=wrap;html=1;arcSize=50;fillColor=#fff2cc;strokeColor=#d6b656;" parent="1" vertex="1">
          <mxGeometry x="1050" y="230" width="100" height="40" as="geometry" />
        </mxCell>
        <mxCell id="hR4ZYZzlDSfTuO1KXUen-69" style="edgeStyle=orthogonalEdgeStyle;shape=connector;curved=1;rounded=0;orthogonalLoop=1;jettySize=auto;html=1;labelBackgroundColor=default;strokeColor=default;fontFamily=Helvetica;fontSize=11;fontColor=default;endArrow=classic;" parent="1" source="hR4ZYZzlDSfTuO1KXUen-65" target="hR4ZYZzlDSfTuO1KXUen-67" edge="1">
          <mxGeometry relative="1" as="geometry" />
        </mxCell>
        <mxCell id="hR4ZYZzlDSfTuO1KXUen-65" value="for each client" style="shape=process;whiteSpace=wrap;html=1;backgroundOutline=1;fontFamily=Helvetica;fontSize=11;fillColor=#fff2cc;strokeColor=#d6b656;" parent="1" vertex="1">
          <mxGeometry x="1040" y="300" width="120" height="40" as="geometry" />
        </mxCell>
        <mxCell id="hR4ZYZzlDSfTuO1KXUen-74" style="edgeStyle=orthogonalEdgeStyle;shape=connector;curved=1;rounded=0;orthogonalLoop=1;jettySize=auto;html=1;exitX=0;exitY=0.5;exitDx=0;exitDy=0;labelBackgroundColor=default;strokeColor=default;fontFamily=Helvetica;fontSize=11;fontColor=default;endArrow=classic;" parent="1" source="hR4ZYZzlDSfTuO1KXUen-67" target="hR4ZYZzlDSfTuO1KXUen-70" edge="1">
          <mxGeometry relative="1" as="geometry" />
        </mxCell>
        <mxCell id="hR4ZYZzlDSfTuO1KXUen-76" style="edgeStyle=orthogonalEdgeStyle;shape=connector;curved=1;rounded=0;orthogonalLoop=1;jettySize=auto;html=1;exitX=0;exitY=0.5;exitDx=0;exitDy=0;labelBackgroundColor=default;strokeColor=default;fontFamily=Helvetica;fontSize=11;fontColor=default;endArrow=classic;" parent="1" source="hR4ZYZzlDSfTuO1KXUen-67" target="hR4ZYZzlDSfTuO1KXUen-71" edge="1">
          <mxGeometry relative="1" as="geometry" />
        </mxCell>
        <mxCell id="hR4ZYZzlDSfTuO1KXUen-77" style="edgeStyle=orthogonalEdgeStyle;shape=connector;curved=1;rounded=0;orthogonalLoop=1;jettySize=auto;html=1;exitX=1;exitY=0.5;exitDx=0;exitDy=0;labelBackgroundColor=default;strokeColor=default;fontFamily=Helvetica;fontSize=11;fontColor=default;endArrow=classic;" parent="1" source="hR4ZYZzlDSfTuO1KXUen-67" target="hR4ZYZzlDSfTuO1KXUen-72" edge="1">
          <mxGeometry relative="1" as="geometry" />
        </mxCell>
        <mxCell id="hR4ZYZzlDSfTuO1KXUen-78" style="edgeStyle=orthogonalEdgeStyle;shape=connector;curved=1;rounded=0;orthogonalLoop=1;jettySize=auto;html=1;exitX=1;exitY=0.5;exitDx=0;exitDy=0;labelBackgroundColor=default;strokeColor=default;fontFamily=Helvetica;fontSize=11;fontColor=default;endArrow=classic;" parent="1" source="hR4ZYZzlDSfTuO1KXUen-67" target="hR4ZYZzlDSfTuO1KXUen-73" edge="1">
          <mxGeometry relative="1" as="geometry" />
        </mxCell>
        <mxCell id="hR4ZYZzlDSfTuO1KXUen-67" value="&lt;b&gt;read&lt;/b&gt;&lt;br&gt;incoming message" style="rhombus;whiteSpace=wrap;html=1;fontFamily=Helvetica;fontSize=11;fillColor=#fff2cc;strokeColor=#d6b656;" parent="1" vertex="1">
          <mxGeometry x="1060" y="380" width="80" height="80" as="geometry" />
        </mxCell>
        <mxCell id="hR4ZYZzlDSfTuO1KXUen-80" style="edgeStyle=orthogonalEdgeStyle;shape=connector;curved=1;rounded=0;orthogonalLoop=1;jettySize=auto;html=1;labelBackgroundColor=default;strokeColor=default;fontFamily=Helvetica;fontSize=11;fontColor=default;endArrow=classic;" parent="1" source="hR4ZYZzlDSfTuO1KXUen-70" target="hR4ZYZzlDSfTuO1KXUen-79" edge="1">
          <mxGeometry relative="1" as="geometry" />
        </mxCell>
        <mxCell id="hR4ZYZzlDSfTuO1KXUen-70" value="&quot;login&quot;" style="rounded=1;whiteSpace=wrap;html=1;arcSize=50;fillColor=#fff2cc;strokeColor=#d6b656;" parent="1" vertex="1">
          <mxGeometry x="800" y="500" width="80" height="40" as="geometry" />
        </mxCell>
        <mxCell id="hR4ZYZzlDSfTuO1KXUen-90" style="edgeStyle=orthogonalEdgeStyle;shape=connector;curved=1;rounded=0;orthogonalLoop=1;jettySize=auto;html=1;labelBackgroundColor=default;strokeColor=default;fontFamily=Helvetica;fontSize=11;fontColor=default;endArrow=classic;" parent="1" source="hR4ZYZzlDSfTuO1KXUen-71" target="hR4ZYZzlDSfTuO1KXUen-85" edge="1">
          <mxGeometry relative="1" as="geometry" />
        </mxCell>
        <mxCell id="hR4ZYZzlDSfTuO1KXUen-71" value="&quot;ping&quot;" style="rounded=1;whiteSpace=wrap;html=1;arcSize=50;fillColor=#fff2cc;strokeColor=#d6b656;" parent="1" vertex="1">
          <mxGeometry x="1000" y="500" width="80" height="40" as="geometry" />
        </mxCell>
        <mxCell id="hR4ZYZzlDSfTuO1KXUen-94" style="edgeStyle=orthogonalEdgeStyle;shape=connector;curved=1;rounded=0;orthogonalLoop=1;jettySize=auto;html=1;labelBackgroundColor=default;strokeColor=default;fontFamily=Helvetica;fontSize=11;fontColor=default;endArrow=classic;" parent="1" source="hR4ZYZzlDSfTuO1KXUen-72" target="hR4ZYZzlDSfTuO1KXUen-93" edge="1">
          <mxGeometry relative="1" as="geometry" />
        </mxCell>
        <mxCell id="hR4ZYZzlDSfTuO1KXUen-72" value="&quot;ask_clients&lt;span style=&quot;background-color: initial;&quot;&gt;&quot;&lt;/span&gt;" style="rounded=1;whiteSpace=wrap;html=1;arcSize=50;fillColor=#fff2cc;strokeColor=#d6b656;" parent="1" vertex="1">
          <mxGeometry x="1210" y="500" width="80" height="40" as="geometry" />
        </mxCell>
        <mxCell id="hR4ZYZzlDSfTuO1KXUen-96" style="edgeStyle=orthogonalEdgeStyle;shape=connector;curved=1;rounded=0;orthogonalLoop=1;jettySize=auto;html=1;entryX=0.5;entryY=0;entryDx=0;entryDy=0;labelBackgroundColor=default;strokeColor=default;fontFamily=Helvetica;fontSize=11;fontColor=default;endArrow=classic;exitX=0.5;exitY=1;exitDx=0;exitDy=0;" parent="1" source="hR4ZYZzlDSfTuO1KXUen-73" target="hR4ZYZzlDSfTuO1KXUen-83" edge="1">
          <mxGeometry relative="1" as="geometry">
            <Array as="points">
              <mxPoint x="1410" y="780" />
              <mxPoint x="1030" y="780" />
            </Array>
          </mxGeometry>
        </mxCell>
        <mxCell id="hR4ZYZzlDSfTuO1KXUen-73" value="no incoming msg" style="rounded=1;whiteSpace=wrap;html=1;arcSize=50;fillColor=#fff2cc;strokeColor=#d6b656;" parent="1" vertex="1">
          <mxGeometry x="1370" y="500" width="80" height="40" as="geometry" />
        </mxCell>
        <mxCell id="hR4ZYZzlDSfTuO1KXUen-82" style="edgeStyle=orthogonalEdgeStyle;shape=connector;curved=1;rounded=0;orthogonalLoop=1;jettySize=auto;html=1;labelBackgroundColor=default;strokeColor=default;fontFamily=Helvetica;fontSize=11;fontColor=default;endArrow=classic;" parent="1" source="hR4ZYZzlDSfTuO1KXUen-79" target="hR4ZYZzlDSfTuO1KXUen-81" edge="1">
          <mxGeometry relative="1" as="geometry" />
        </mxCell>
        <mxCell id="hR4ZYZzlDSfTuO1KXUen-79" value="&lt;b&gt;respond&lt;/b&gt;: login ok" style="rounded=0;whiteSpace=wrap;html=1;fillColor=#fff2cc;strokeColor=#d6b656;" parent="1" vertex="1">
          <mxGeometry x="790" y="580" width="100" height="40" as="geometry" />
        </mxCell>
        <mxCell id="hR4ZYZzlDSfTuO1KXUen-84" style="edgeStyle=orthogonalEdgeStyle;shape=connector;curved=1;rounded=0;orthogonalLoop=1;jettySize=auto;html=1;entryX=0.5;entryY=0;entryDx=0;entryDy=0;labelBackgroundColor=default;strokeColor=default;fontFamily=Helvetica;fontSize=11;fontColor=default;endArrow=classic;exitX=0.5;exitY=1;exitDx=0;exitDy=0;" parent="1" source="hR4ZYZzlDSfTuO1KXUen-81" target="hR4ZYZzlDSfTuO1KXUen-83" edge="1">
          <mxGeometry relative="1" as="geometry" />
        </mxCell>
        <mxCell id="hR4ZYZzlDSfTuO1KXUen-81" value="update &quot;clients changed&quot; for each client" style="rounded=0;whiteSpace=wrap;html=1;fillColor=#fff2cc;strokeColor=#d6b656;" parent="1" vertex="1">
          <mxGeometry x="790" y="660" width="100" height="50" as="geometry" />
        </mxCell>
        <mxCell id="hR4ZYZzlDSfTuO1KXUen-97" value="no" style="edgeStyle=orthogonalEdgeStyle;shape=connector;curved=1;rounded=0;orthogonalLoop=1;jettySize=auto;html=1;entryX=1;entryY=0.5;entryDx=0;entryDy=0;labelBackgroundColor=default;strokeColor=default;fontFamily=Helvetica;fontSize=11;fontColor=default;endArrow=classic;" parent="1" source="hR4ZYZzlDSfTuO1KXUen-83" target="hR4ZYZzlDSfTuO1KXUen-64" edge="1">
          <mxGeometry x="-0.9701" relative="1" as="geometry">
            <Array as="points">
              <mxPoint x="1480" y="850" />
              <mxPoint x="1480" y="250" />
            </Array>
            <mxPoint as="offset" />
          </mxGeometry>
        </mxCell>
        <mxCell id="hR4ZYZzlDSfTuO1KXUen-99" value="yes" style="edgeStyle=orthogonalEdgeStyle;shape=connector;curved=1;rounded=0;orthogonalLoop=1;jettySize=auto;html=1;labelBackgroundColor=default;strokeColor=default;fontFamily=Helvetica;fontSize=11;fontColor=default;endArrow=classic;" parent="1" source="hR4ZYZzlDSfTuO1KXUen-83" target="hR4ZYZzlDSfTuO1KXUen-98" edge="1">
          <mxGeometry relative="1" as="geometry" />
        </mxCell>
        <mxCell id="hR4ZYZzlDSfTuO1KXUen-83" value="client timed out?" style="rhombus;whiteSpace=wrap;html=1;fontFamily=Helvetica;fontSize=11;fillColor=#fff2cc;strokeColor=#d6b656;" parent="1" vertex="1">
          <mxGeometry x="990" y="810" width="80" height="80" as="geometry" />
        </mxCell>
        <mxCell id="hR4ZYZzlDSfTuO1KXUen-88" value="no" style="edgeStyle=orthogonalEdgeStyle;shape=connector;curved=1;rounded=0;orthogonalLoop=1;jettySize=auto;html=1;exitX=0;exitY=0.5;exitDx=0;exitDy=0;labelBackgroundColor=default;strokeColor=default;fontFamily=Helvetica;fontSize=11;fontColor=default;endArrow=classic;" parent="1" source="hR4ZYZzlDSfTuO1KXUen-85" target="hR4ZYZzlDSfTuO1KXUen-86" edge="1">
          <mxGeometry relative="1" as="geometry" />
        </mxCell>
        <mxCell id="hR4ZYZzlDSfTuO1KXUen-89" value="yes" style="edgeStyle=orthogonalEdgeStyle;shape=connector;curved=1;rounded=0;orthogonalLoop=1;jettySize=auto;html=1;exitX=1;exitY=0.5;exitDx=0;exitDy=0;labelBackgroundColor=default;strokeColor=default;fontFamily=Helvetica;fontSize=11;fontColor=default;endArrow=classic;" parent="1" source="hR4ZYZzlDSfTuO1KXUen-85" target="hR4ZYZzlDSfTuO1KXUen-87" edge="1">
          <mxGeometry relative="1" as="geometry" />
        </mxCell>
        <mxCell id="hR4ZYZzlDSfTuO1KXUen-85" value="client list changed since last ping?" style="rhombus;whiteSpace=wrap;html=1;fontFamily=Helvetica;fontSize=11;fillColor=#fff2cc;strokeColor=#d6b656;" parent="1" vertex="1">
          <mxGeometry x="1000" y="570" width="80" height="80" as="geometry" />
        </mxCell>
        <mxCell id="hR4ZYZzlDSfTuO1KXUen-91" style="edgeStyle=orthogonalEdgeStyle;shape=connector;curved=1;rounded=0;orthogonalLoop=1;jettySize=auto;html=1;entryX=0.5;entryY=0;entryDx=0;entryDy=0;labelBackgroundColor=default;strokeColor=default;fontFamily=Helvetica;fontSize=11;fontColor=default;endArrow=classic;" parent="1" source="hR4ZYZzlDSfTuO1KXUen-86" target="hR4ZYZzlDSfTuO1KXUen-83" edge="1">
          <mxGeometry relative="1" as="geometry" />
        </mxCell>
        <mxCell id="hR4ZYZzlDSfTuO1KXUen-86" value="&lt;b&gt;respond&lt;/b&gt;: ping ok" style="rounded=0;whiteSpace=wrap;html=1;fillColor=#fff2cc;strokeColor=#d6b656;" parent="1" vertex="1">
          <mxGeometry x="920" y="670" width="100" height="40" as="geometry" />
        </mxCell>
        <mxCell id="hR4ZYZzlDSfTuO1KXUen-92" style="edgeStyle=orthogonalEdgeStyle;shape=connector;curved=1;rounded=0;orthogonalLoop=1;jettySize=auto;html=1;labelBackgroundColor=default;strokeColor=default;fontFamily=Helvetica;fontSize=11;fontColor=default;endArrow=classic;" parent="1" source="hR4ZYZzlDSfTuO1KXUen-87" target="hR4ZYZzlDSfTuO1KXUen-83" edge="1">
          <mxGeometry relative="1" as="geometry" />
        </mxCell>
        <mxCell id="hR4ZYZzlDSfTuO1KXUen-87" value="&lt;b&gt;respond&lt;/b&gt;: ping list_changed" style="rounded=0;whiteSpace=wrap;html=1;fillColor=#fff2cc;strokeColor=#d6b656;" parent="1" vertex="1">
          <mxGeometry x="1060" y="670" width="100" height="40" as="geometry" />
        </mxCell>
        <mxCell id="hR4ZYZzlDSfTuO1KXUen-95" style="edgeStyle=orthogonalEdgeStyle;shape=connector;curved=1;rounded=0;orthogonalLoop=1;jettySize=auto;html=1;labelBackgroundColor=default;strokeColor=default;fontFamily=Helvetica;fontSize=11;fontColor=default;endArrow=classic;exitX=0.5;exitY=1;exitDx=0;exitDy=0;" parent="1" source="hR4ZYZzlDSfTuO1KXUen-93" target="hR4ZYZzlDSfTuO1KXUen-83" edge="1">
          <mxGeometry relative="1" as="geometry">
            <Array as="points">
              <mxPoint x="1250" y="770" />
              <mxPoint x="1030" y="770" />
            </Array>
          </mxGeometry>
        </mxCell>
        <mxCell id="hR4ZYZzlDSfTuO1KXUen-93" value="&lt;b&gt;respond&lt;/b&gt;: list of clients" style="rounded=0;whiteSpace=wrap;html=1;fillColor=#fff2cc;strokeColor=#d6b656;" parent="1" vertex="1">
          <mxGeometry x="1200" y="670" width="100" height="40" as="geometry" />
        </mxCell>
        <mxCell id="hR4ZYZzlDSfTuO1KXUen-101" style="edgeStyle=orthogonalEdgeStyle;shape=connector;curved=1;rounded=0;orthogonalLoop=1;jettySize=auto;html=1;labelBackgroundColor=default;strokeColor=default;fontFamily=Helvetica;fontSize=11;fontColor=default;endArrow=classic;" parent="1" source="hR4ZYZzlDSfTuO1KXUen-98" target="hR4ZYZzlDSfTuO1KXUen-100" edge="1">
          <mxGeometry relative="1" as="geometry" />
        </mxCell>
        <mxCell id="hR4ZYZzlDSfTuO1KXUen-98" value="remove client from list" style="rounded=0;whiteSpace=wrap;html=1;fillColor=#fff2cc;strokeColor=#d6b656;" parent="1" vertex="1">
          <mxGeometry x="980" y="930" width="100" height="40" as="geometry" />
        </mxCell>
        <mxCell id="hR4ZYZzlDSfTuO1KXUen-102" style="edgeStyle=orthogonalEdgeStyle;shape=connector;curved=1;rounded=0;orthogonalLoop=1;jettySize=auto;html=1;labelBackgroundColor=default;strokeColor=default;fontFamily=Helvetica;fontSize=11;fontColor=default;endArrow=classic;" parent="1" source="hR4ZYZzlDSfTuO1KXUen-100" target="hR4ZYZzlDSfTuO1KXUen-64" edge="1">
          <mxGeometry relative="1" as="geometry">
            <Array as="points">
              <mxPoint x="1520" y="1025" />
              <mxPoint x="1520" y="250" />
            </Array>
          </mxGeometry>
        </mxCell>
        <mxCell id="hR4ZYZzlDSfTuO1KXUen-100" value="update &quot;clients changed&quot; for each client" style="rounded=0;whiteSpace=wrap;html=1;fillColor=#fff2cc;strokeColor=#d6b656;" parent="1" vertex="1">
          <mxGeometry x="980" y="1010" width="100" height="50" as="geometry" />
        </mxCell>
        <mxCell id="hR4ZYZzlDSfTuO1KXUen-103" value="Synchronous server" style="text;html=1;strokeColor=none;fillColor=none;align=center;verticalAlign=middle;whiteSpace=wrap;rounded=0;fontSize=11;fontFamily=Helvetica;fontColor=default;" parent="1" vertex="1">
          <mxGeometry x="970" y="180" width="155" height="30" as="geometry" />
        </mxCell>
      </root>
    </mxGraphModel>
  </diagram>
  <diagram id="swoqIfhrYHMp--Hl4pSS" name="ch. 4 - async">
    <mxGraphModel dx="3628" dy="918" grid="1" gridSize="10" guides="1" tooltips="1" connect="1" arrows="1" fold="1" page="0" pageScale="1" pageWidth="850" pageHeight="1100" math="0" shadow="0">
      <root>
        <mxCell id="0" />
        <mxCell id="1" parent="0" />
        <mxCell id="kAcoKQEJUVs0v133dwi2-1" style="edgeStyle=orthogonalEdgeStyle;rounded=0;orthogonalLoop=1;jettySize=auto;html=1;curved=1;" parent="1" source="kAcoKQEJUVs0v133dwi2-6" target="kAcoKQEJUVs0v133dwi2-3" edge="1">
          <mxGeometry relative="1" as="geometry">
            <mxPoint x="1510" y="270" as="sourcePoint" />
          </mxGeometry>
        </mxCell>
        <mxCell id="kAcoKQEJUVs0v133dwi2-2" style="edgeStyle=orthogonalEdgeStyle;rounded=0;orthogonalLoop=1;jettySize=auto;html=1;curved=1;" parent="1" source="kAcoKQEJUVs0v133dwi2-3" target="kAcoKQEJUVs0v133dwi2-13" edge="1">
          <mxGeometry relative="1" as="geometry">
            <mxPoint x="1510" y="370" as="targetPoint" />
          </mxGeometry>
        </mxCell>
        <mxCell id="kAcoKQEJUVs0v133dwi2-3" value="Accept new client" style="rounded=0;whiteSpace=wrap;html=1;fillColor=#fff2cc;strokeColor=#d6b656;" parent="1" vertex="1">
          <mxGeometry x="1450" y="300" width="120" height="40" as="geometry" />
        </mxCell>
        <mxCell id="kAcoKQEJUVs0v133dwi2-6" value="Async Service Start" style="rounded=1;whiteSpace=wrap;html=1;arcSize=50;fillColor=#fff2cc;strokeColor=#d6b656;" parent="1" vertex="1">
          <mxGeometry x="1460" y="230" width="100" height="40" as="geometry" />
        </mxCell>
        <mxCell id="kAcoKQEJUVs0v133dwi2-24" value="NO" style="edgeStyle=orthogonalEdgeStyle;shape=connector;rounded=0;orthogonalLoop=1;jettySize=auto;html=1;entryX=1;entryY=0.5;entryDx=0;entryDy=0;labelBackgroundColor=default;strokeColor=default;fontFamily=Helvetica;fontSize=11;fontColor=default;endArrow=classic;" parent="1" source="kAcoKQEJUVs0v133dwi2-11" target="kAcoKQEJUVs0v133dwi2-13" edge="1">
          <mxGeometry x="-0.9539" relative="1" as="geometry">
            <Array as="points">
              <mxPoint x="2100" y="590" />
              <mxPoint x="2100" y="400" />
            </Array>
            <mxPoint as="offset" />
          </mxGeometry>
        </mxCell>
        <mxCell id="kAcoKQEJUVs0v133dwi2-62" value="YES" style="edgeStyle=orthogonalEdgeStyle;shape=connector;curved=1;rounded=0;orthogonalLoop=1;jettySize=auto;html=1;labelBackgroundColor=default;strokeColor=default;fontFamily=Helvetica;fontSize=11;fontColor=default;endArrow=classic;" parent="1" source="kAcoKQEJUVs0v133dwi2-11" target="kAcoKQEJUVs0v133dwi2-60" edge="1">
          <mxGeometry relative="1" as="geometry" />
        </mxCell>
        <mxCell id="kAcoKQEJUVs0v133dwi2-11" value="ping timeout?" style="rhombus;whiteSpace=wrap;html=1;fontFamily=Helvetica;fontSize=11;fillColor=#fff2cc;strokeColor=#d6b656;" parent="1" vertex="1">
          <mxGeometry x="1980" y="550" width="80" height="80" as="geometry" />
        </mxCell>
        <mxCell id="kAcoKQEJUVs0v133dwi2-15" style="edgeStyle=orthogonalEdgeStyle;shape=connector;curved=1;rounded=0;orthogonalLoop=1;jettySize=auto;html=1;labelBackgroundColor=default;strokeColor=default;fontFamily=Helvetica;fontSize=11;fontColor=default;endArrow=classic;" parent="1" source="kAcoKQEJUVs0v133dwi2-13" target="kAcoKQEJUVs0v133dwi2-14" edge="1">
          <mxGeometry relative="1" as="geometry" />
        </mxCell>
        <mxCell id="kAcoKQEJUVs0v133dwi2-20" style="edgeStyle=orthogonalEdgeStyle;shape=connector;curved=1;rounded=0;orthogonalLoop=1;jettySize=auto;html=1;exitX=0.5;exitY=1;exitDx=0;exitDy=0;labelBackgroundColor=default;strokeColor=default;fontFamily=Helvetica;fontSize=11;fontColor=default;endArrow=classic;" parent="1" source="kAcoKQEJUVs0v133dwi2-13" target="kAcoKQEJUVs0v133dwi2-17" edge="1">
          <mxGeometry relative="1" as="geometry" />
        </mxCell>
        <mxCell id="kAcoKQEJUVs0v133dwi2-21" style="edgeStyle=orthogonalEdgeStyle;shape=connector;curved=1;rounded=0;orthogonalLoop=1;jettySize=auto;html=1;exitX=0.5;exitY=1;exitDx=0;exitDy=0;labelBackgroundColor=default;strokeColor=default;fontFamily=Helvetica;fontSize=11;fontColor=default;endArrow=classic;" parent="1" source="kAcoKQEJUVs0v133dwi2-13" target="kAcoKQEJUVs0v133dwi2-18" edge="1">
          <mxGeometry relative="1" as="geometry" />
        </mxCell>
        <mxCell id="kAcoKQEJUVs0v133dwi2-22" style="edgeStyle=orthogonalEdgeStyle;shape=connector;curved=1;rounded=0;orthogonalLoop=1;jettySize=auto;html=1;exitX=0.5;exitY=1;exitDx=0;exitDy=0;labelBackgroundColor=default;strokeColor=default;fontFamily=Helvetica;fontSize=11;fontColor=default;endArrow=classic;" parent="1" source="kAcoKQEJUVs0v133dwi2-13" target="kAcoKQEJUVs0v133dwi2-16" edge="1">
          <mxGeometry relative="1" as="geometry" />
        </mxCell>
        <mxCell id="kAcoKQEJUVs0v133dwi2-13" value="Boost.Asio" style="shape=process;whiteSpace=wrap;html=1;backgroundOutline=1;fontFamily=Helvetica;fontSize=11;fillColor=#fff2cc;strokeColor=#d6b656;" parent="1" vertex="1">
          <mxGeometry x="1450" y="380" width="120" height="40" as="geometry" />
        </mxCell>
        <mxCell id="kAcoKQEJUVs0v133dwi2-46" style="edgeStyle=orthogonalEdgeStyle;shape=connector;curved=1;rounded=0;orthogonalLoop=1;jettySize=auto;html=1;labelBackgroundColor=default;strokeColor=default;fontFamily=Helvetica;fontSize=11;fontColor=default;endArrow=classic;" parent="1" source="kAcoKQEJUVs0v133dwi2-14" target="kAcoKQEJUVs0v133dwi2-35" edge="1">
          <mxGeometry relative="1" as="geometry" />
        </mxCell>
        <mxCell id="kAcoKQEJUVs0v133dwi2-14" value="on_read" style="rounded=1;whiteSpace=wrap;html=1;arcSize=50;fillColor=#fff2cc;strokeColor=#d6b656;" parent="1" vertex="1">
          <mxGeometry x="1460" y="470" width="100" height="40" as="geometry" />
        </mxCell>
        <mxCell id="kAcoKQEJUVs0v133dwi2-34" style="edgeStyle=orthogonalEdgeStyle;shape=connector;curved=1;rounded=0;orthogonalLoop=1;jettySize=auto;html=1;labelBackgroundColor=default;strokeColor=default;fontFamily=Helvetica;fontSize=11;fontColor=default;endArrow=classic;" parent="1" source="kAcoKQEJUVs0v133dwi2-16" target="kAcoKQEJUVs0v133dwi2-25" edge="1">
          <mxGeometry relative="1" as="geometry" />
        </mxCell>
        <mxCell id="kAcoKQEJUVs0v133dwi2-16" value="on_accept" style="rounded=1;whiteSpace=wrap;html=1;arcSize=50;fillColor=#fff2cc;strokeColor=#d6b656;" parent="1" vertex="1">
          <mxGeometry x="1110" y="470" width="100" height="40" as="geometry" />
        </mxCell>
        <mxCell id="kAcoKQEJUVs0v133dwi2-66" style="edgeStyle=orthogonalEdgeStyle;shape=connector;curved=1;rounded=0;orthogonalLoop=1;jettySize=auto;html=1;labelBackgroundColor=default;strokeColor=default;fontFamily=Helvetica;fontSize=11;fontColor=default;endArrow=classic;" parent="1" source="kAcoKQEJUVs0v133dwi2-17" target="kAcoKQEJUVs0v133dwi2-55" edge="1">
          <mxGeometry relative="1" as="geometry" />
        </mxCell>
        <mxCell id="kAcoKQEJUVs0v133dwi2-17" value="on_write" style="rounded=1;whiteSpace=wrap;html=1;arcSize=50;fillColor=#fff2cc;strokeColor=#d6b656;" parent="1" vertex="1">
          <mxGeometry x="1810" y="470" width="100" height="40" as="geometry" />
        </mxCell>
        <mxCell id="kAcoKQEJUVs0v133dwi2-23" style="edgeStyle=orthogonalEdgeStyle;shape=connector;curved=1;rounded=0;orthogonalLoop=1;jettySize=auto;html=1;labelBackgroundColor=default;strokeColor=default;fontFamily=Helvetica;fontSize=11;fontColor=default;endArrow=classic;" parent="1" source="kAcoKQEJUVs0v133dwi2-18" target="kAcoKQEJUVs0v133dwi2-11" edge="1">
          <mxGeometry relative="1" as="geometry" />
        </mxCell>
        <mxCell id="kAcoKQEJUVs0v133dwi2-18" value="on_check_ping" style="rounded=1;whiteSpace=wrap;html=1;arcSize=50;fillColor=#fff2cc;strokeColor=#d6b656;" parent="1" vertex="1">
          <mxGeometry x="1970" y="470" width="100" height="40" as="geometry" />
        </mxCell>
        <mxCell id="kAcoKQEJUVs0v133dwi2-31" style="edgeStyle=orthogonalEdgeStyle;shape=connector;curved=1;rounded=0;orthogonalLoop=1;jettySize=auto;html=1;labelBackgroundColor=default;strokeColor=default;fontFamily=Helvetica;fontSize=11;fontColor=default;endArrow=classic;" parent="1" source="kAcoKQEJUVs0v133dwi2-25" target="kAcoKQEJUVs0v133dwi2-26" edge="1">
          <mxGeometry relative="1" as="geometry" />
        </mxCell>
        <mxCell id="kAcoKQEJUVs0v133dwi2-25" value="Crate new client connection" style="rounded=0;whiteSpace=wrap;html=1;fillColor=#fff2cc;strokeColor=#d6b656;" parent="1" vertex="1">
          <mxGeometry x="1100" y="550" width="120" height="40" as="geometry" />
        </mxCell>
        <mxCell id="kAcoKQEJUVs0v133dwi2-32" style="edgeStyle=orthogonalEdgeStyle;shape=connector;curved=1;rounded=0;orthogonalLoop=1;jettySize=auto;html=1;labelBackgroundColor=default;strokeColor=default;fontFamily=Helvetica;fontSize=11;fontColor=default;endArrow=classic;" parent="1" source="kAcoKQEJUVs0v133dwi2-26" target="kAcoKQEJUVs0v133dwi2-27" edge="1">
          <mxGeometry relative="1" as="geometry" />
        </mxCell>
        <mxCell id="kAcoKQEJUVs0v133dwi2-26" value="Add new client to list" style="rounded=0;whiteSpace=wrap;html=1;fillColor=#fff2cc;strokeColor=#d6b656;" parent="1" vertex="1">
          <mxGeometry x="1100" y="630" width="120" height="40" as="geometry" />
        </mxCell>
        <mxCell id="kAcoKQEJUVs0v133dwi2-33" style="edgeStyle=orthogonalEdgeStyle;shape=connector;curved=1;rounded=0;orthogonalLoop=1;jettySize=auto;html=1;labelBackgroundColor=default;strokeColor=default;fontFamily=Helvetica;fontSize=11;fontColor=default;endArrow=classic;" parent="1" source="kAcoKQEJUVs0v133dwi2-27" target="kAcoKQEJUVs0v133dwi2-28" edge="1">
          <mxGeometry relative="1" as="geometry" />
        </mxCell>
        <mxCell id="kAcoKQEJUVs0v133dwi2-27" value="Update clients_changed for all clients" style="rounded=0;whiteSpace=wrap;html=1;fillColor=#fff2cc;strokeColor=#d6b656;" parent="1" vertex="1">
          <mxGeometry x="1100" y="710" width="120" height="40" as="geometry" />
        </mxCell>
        <mxCell id="kAcoKQEJUVs0v133dwi2-30" style="edgeStyle=orthogonalEdgeStyle;shape=connector;curved=1;rounded=0;orthogonalLoop=1;jettySize=auto;html=1;exitX=0.5;exitY=1;exitDx=0;exitDy=0;entryX=0;entryY=0.5;entryDx=0;entryDy=0;labelBackgroundColor=default;strokeColor=default;fontFamily=Helvetica;fontSize=11;fontColor=default;endArrow=classic;" parent="1" source="kAcoKQEJUVs0v133dwi2-28" target="kAcoKQEJUVs0v133dwi2-29" edge="1">
          <mxGeometry relative="1" as="geometry" />
        </mxCell>
        <mxCell id="kAcoKQEJUVs0v133dwi2-28" value="accept new client" style="rounded=0;whiteSpace=wrap;html=1;fillColor=#fff2cc;strokeColor=#d6b656;" parent="1" vertex="1">
          <mxGeometry x="1100" y="790" width="120" height="40" as="geometry" />
        </mxCell>
        <mxCell id="kAcoKQEJUVs0v133dwi2-65" style="edgeStyle=orthogonalEdgeStyle;shape=connector;rounded=0;orthogonalLoop=1;jettySize=auto;html=1;exitX=0.5;exitY=1;exitDx=0;exitDy=0;entryX=1;entryY=0.25;entryDx=0;entryDy=0;labelBackgroundColor=default;strokeColor=default;fontFamily=Helvetica;fontSize=11;fontColor=default;endArrow=classic;" parent="1" source="kAcoKQEJUVs0v133dwi2-29" target="kAcoKQEJUVs0v133dwi2-13" edge="1">
          <mxGeometry relative="1" as="geometry">
            <Array as="points">
              <mxPoint x="1510" y="940" />
              <mxPoint x="2120" y="940" />
              <mxPoint x="2120" y="390" />
            </Array>
          </mxGeometry>
        </mxCell>
        <mxCell id="kAcoKQEJUVs0v133dwi2-29" value="" style="rounded=0;whiteSpace=wrap;html=1;fillColor=#fff2cc;strokeColor=#d6b656;" parent="1" vertex="1">
          <mxGeometry x="1450" y="880" width="120" height="40" as="geometry" />
        </mxCell>
        <mxCell id="kAcoKQEJUVs0v133dwi2-37" style="edgeStyle=orthogonalEdgeStyle;shape=connector;curved=1;rounded=0;orthogonalLoop=1;jettySize=auto;html=1;labelBackgroundColor=default;strokeColor=default;fontFamily=Helvetica;fontSize=11;fontColor=default;endArrow=classic;exitX=0.5;exitY=1;exitDx=0;exitDy=0;" parent="1" source="kAcoKQEJUVs0v133dwi2-35" target="kAcoKQEJUVs0v133dwi2-36" edge="1">
          <mxGeometry relative="1" as="geometry" />
        </mxCell>
        <mxCell id="kAcoKQEJUVs0v133dwi2-39" style="edgeStyle=orthogonalEdgeStyle;shape=connector;curved=1;rounded=0;orthogonalLoop=1;jettySize=auto;html=1;labelBackgroundColor=default;strokeColor=default;fontFamily=Helvetica;fontSize=11;fontColor=default;endArrow=classic;" parent="1" source="kAcoKQEJUVs0v133dwi2-35" target="kAcoKQEJUVs0v133dwi2-38" edge="1">
          <mxGeometry relative="1" as="geometry" />
        </mxCell>
        <mxCell id="kAcoKQEJUVs0v133dwi2-41" style="edgeStyle=orthogonalEdgeStyle;shape=connector;curved=1;rounded=0;orthogonalLoop=1;jettySize=auto;html=1;labelBackgroundColor=default;strokeColor=default;fontFamily=Helvetica;fontSize=11;fontColor=default;endArrow=classic;exitX=0.5;exitY=1;exitDx=0;exitDy=0;" parent="1" source="kAcoKQEJUVs0v133dwi2-35" target="kAcoKQEJUVs0v133dwi2-40" edge="1">
          <mxGeometry relative="1" as="geometry" />
        </mxCell>
        <mxCell id="kAcoKQEJUVs0v133dwi2-35" value="Check request" style="rounded=0;whiteSpace=wrap;html=1;fillColor=#fff2cc;strokeColor=#d6b656;" parent="1" vertex="1">
          <mxGeometry x="1450" y="550" width="120" height="40" as="geometry" />
        </mxCell>
        <mxCell id="kAcoKQEJUVs0v133dwi2-43" style="edgeStyle=orthogonalEdgeStyle;shape=connector;curved=1;rounded=0;orthogonalLoop=1;jettySize=auto;html=1;labelBackgroundColor=default;strokeColor=default;fontFamily=Helvetica;fontSize=11;fontColor=default;endArrow=classic;" parent="1" source="kAcoKQEJUVs0v133dwi2-36" target="kAcoKQEJUVs0v133dwi2-42" edge="1">
          <mxGeometry relative="1" as="geometry" />
        </mxCell>
        <mxCell id="kAcoKQEJUVs0v133dwi2-36" value="on_login" style="rounded=1;whiteSpace=wrap;html=1;arcSize=50;fillColor=#fff2cc;strokeColor=#d6b656;" parent="1" vertex="1">
          <mxGeometry x="1270" y="630" width="100" height="40" as="geometry" />
        </mxCell>
        <mxCell id="kAcoKQEJUVs0v133dwi2-45" style="edgeStyle=orthogonalEdgeStyle;shape=connector;curved=1;rounded=0;orthogonalLoop=1;jettySize=auto;html=1;labelBackgroundColor=default;strokeColor=default;fontFamily=Helvetica;fontSize=11;fontColor=default;endArrow=classic;" parent="1" source="kAcoKQEJUVs0v133dwi2-38" target="kAcoKQEJUVs0v133dwi2-44" edge="1">
          <mxGeometry relative="1" as="geometry" />
        </mxCell>
        <mxCell id="kAcoKQEJUVs0v133dwi2-38" value="on_ping" style="rounded=1;whiteSpace=wrap;html=1;arcSize=50;fillColor=#fff2cc;strokeColor=#d6b656;" parent="1" vertex="1">
          <mxGeometry x="1460" y="630" width="100" height="40" as="geometry" />
        </mxCell>
        <mxCell id="kAcoKQEJUVs0v133dwi2-57" style="edgeStyle=orthogonalEdgeStyle;shape=connector;curved=1;rounded=0;orthogonalLoop=1;jettySize=auto;html=1;labelBackgroundColor=default;strokeColor=default;fontFamily=Helvetica;fontSize=11;fontColor=default;endArrow=classic;" parent="1" source="kAcoKQEJUVs0v133dwi2-40" target="kAcoKQEJUVs0v133dwi2-56" edge="1">
          <mxGeometry relative="1" as="geometry" />
        </mxCell>
        <mxCell id="kAcoKQEJUVs0v133dwi2-40" value="on_clients" style="rounded=1;whiteSpace=wrap;html=1;arcSize=50;fillColor=#fff2cc;strokeColor=#d6b656;" parent="1" vertex="1">
          <mxGeometry x="1650" y="630" width="100" height="40" as="geometry" />
        </mxCell>
        <mxCell id="kAcoKQEJUVs0v133dwi2-54" style="edgeStyle=orthogonalEdgeStyle;shape=connector;curved=1;rounded=0;orthogonalLoop=1;jettySize=auto;html=1;entryX=0;entryY=0.5;entryDx=0;entryDy=0;labelBackgroundColor=default;strokeColor=default;fontFamily=Helvetica;fontSize=11;fontColor=default;endArrow=classic;" parent="1" source="kAcoKQEJUVs0v133dwi2-42" target="kAcoKQEJUVs0v133dwi2-29" edge="1">
          <mxGeometry relative="1" as="geometry">
            <Array as="points">
              <mxPoint x="1320" y="900" />
            </Array>
          </mxGeometry>
        </mxCell>
        <mxCell id="kAcoKQEJUVs0v133dwi2-42" value="write &quot;login ok&quot;" style="shape=process;whiteSpace=wrap;html=1;backgroundOutline=1;fontFamily=Helvetica;fontSize=11;fillColor=#fff2cc;strokeColor=#d6b656;" parent="1" vertex="1">
          <mxGeometry x="1260" y="710" width="120" height="40" as="geometry" />
        </mxCell>
        <mxCell id="kAcoKQEJUVs0v133dwi2-49" value="YES" style="edgeStyle=orthogonalEdgeStyle;shape=connector;curved=1;rounded=0;orthogonalLoop=1;jettySize=auto;html=1;labelBackgroundColor=default;strokeColor=default;fontFamily=Helvetica;fontSize=11;fontColor=default;endArrow=classic;exitX=0;exitY=0.5;exitDx=0;exitDy=0;" parent="1" source="kAcoKQEJUVs0v133dwi2-44" target="kAcoKQEJUVs0v133dwi2-48" edge="1">
          <mxGeometry x="-0.5999" relative="1" as="geometry">
            <mxPoint as="offset" />
          </mxGeometry>
        </mxCell>
        <mxCell id="kAcoKQEJUVs0v133dwi2-51" value="NO" style="edgeStyle=orthogonalEdgeStyle;shape=connector;curved=1;rounded=0;orthogonalLoop=1;jettySize=auto;html=1;exitX=1;exitY=0.5;exitDx=0;exitDy=0;labelBackgroundColor=default;strokeColor=default;fontFamily=Helvetica;fontSize=11;fontColor=default;endArrow=classic;" parent="1" source="kAcoKQEJUVs0v133dwi2-44" target="kAcoKQEJUVs0v133dwi2-50" edge="1">
          <mxGeometry x="-0.5999" relative="1" as="geometry">
            <mxPoint as="offset" />
          </mxGeometry>
        </mxCell>
        <mxCell id="kAcoKQEJUVs0v133dwi2-44" value="clients changed?" style="rhombus;whiteSpace=wrap;html=1;fontFamily=Helvetica;fontSize=11;fillColor=#fff2cc;strokeColor=#d6b656;" parent="1" vertex="1">
          <mxGeometry x="1470" y="710" width="80" height="80" as="geometry" />
        </mxCell>
        <mxCell id="kAcoKQEJUVs0v133dwi2-52" style="edgeStyle=orthogonalEdgeStyle;shape=connector;curved=1;rounded=0;orthogonalLoop=1;jettySize=auto;html=1;exitX=0.5;exitY=1;exitDx=0;exitDy=0;entryX=0;entryY=0.5;entryDx=0;entryDy=0;labelBackgroundColor=default;strokeColor=default;fontFamily=Helvetica;fontSize=11;fontColor=default;endArrow=classic;" parent="1" source="kAcoKQEJUVs0v133dwi2-48" target="kAcoKQEJUVs0v133dwi2-29" edge="1">
          <mxGeometry relative="1" as="geometry" />
        </mxCell>
        <mxCell id="kAcoKQEJUVs0v133dwi2-48" value="write &quot;ping list changed&quot;" style="shape=process;whiteSpace=wrap;html=1;backgroundOutline=1;fontFamily=Helvetica;fontSize=11;fillColor=#fff2cc;strokeColor=#d6b656;" parent="1" vertex="1">
          <mxGeometry x="1360" y="800" width="120" height="40" as="geometry" />
        </mxCell>
        <mxCell id="kAcoKQEJUVs0v133dwi2-53" style="edgeStyle=orthogonalEdgeStyle;shape=connector;curved=1;rounded=0;orthogonalLoop=1;jettySize=auto;html=1;exitX=0.5;exitY=1;exitDx=0;exitDy=0;entryX=1;entryY=0.5;entryDx=0;entryDy=0;labelBackgroundColor=default;strokeColor=default;fontFamily=Helvetica;fontSize=11;fontColor=default;endArrow=classic;" parent="1" source="kAcoKQEJUVs0v133dwi2-50" target="kAcoKQEJUVs0v133dwi2-29" edge="1">
          <mxGeometry relative="1" as="geometry" />
        </mxCell>
        <mxCell id="kAcoKQEJUVs0v133dwi2-50" value="write &quot;ping ok&quot;" style="shape=process;whiteSpace=wrap;html=1;backgroundOutline=1;fontFamily=Helvetica;fontSize=11;fillColor=#fff2cc;strokeColor=#d6b656;" parent="1" vertex="1">
          <mxGeometry x="1540" y="800" width="120" height="40" as="geometry" />
        </mxCell>
        <mxCell id="kAcoKQEJUVs0v133dwi2-68" style="edgeStyle=orthogonalEdgeStyle;shape=connector;curved=1;rounded=0;orthogonalLoop=1;jettySize=auto;html=1;labelBackgroundColor=default;strokeColor=default;fontFamily=Helvetica;fontSize=11;fontColor=default;endArrow=classic;" parent="1" source="kAcoKQEJUVs0v133dwi2-55" target="kAcoKQEJUVs0v133dwi2-67" edge="1">
          <mxGeometry relative="1" as="geometry" />
        </mxCell>
        <mxCell id="kAcoKQEJUVs0v133dwi2-55" value="do_read()" style="rounded=0;whiteSpace=wrap;html=1;fillColor=#fff2cc;strokeColor=#d6b656;" parent="1" vertex="1">
          <mxGeometry x="1800" y="550" width="120" height="40" as="geometry" />
        </mxCell>
        <mxCell id="kAcoKQEJUVs0v133dwi2-59" style="edgeStyle=orthogonalEdgeStyle;shape=connector;curved=1;rounded=0;orthogonalLoop=1;jettySize=auto;html=1;exitX=0.5;exitY=1;exitDx=0;exitDy=0;entryX=1;entryY=0.5;entryDx=0;entryDy=0;labelBackgroundColor=default;strokeColor=default;fontFamily=Helvetica;fontSize=11;fontColor=default;endArrow=classic;" parent="1" source="kAcoKQEJUVs0v133dwi2-56" target="kAcoKQEJUVs0v133dwi2-29" edge="1">
          <mxGeometry relative="1" as="geometry" />
        </mxCell>
        <mxCell id="kAcoKQEJUVs0v133dwi2-56" value="write &quot;clients&quot;&lt;br&gt;+&lt;br&gt;client list" style="shape=process;whiteSpace=wrap;html=1;backgroundOutline=1;fontFamily=Helvetica;fontSize=11;fillColor=#fff2cc;strokeColor=#d6b656;" parent="1" vertex="1">
          <mxGeometry x="1640" y="710" width="120" height="40" as="geometry" />
        </mxCell>
        <mxCell id="kAcoKQEJUVs0v133dwi2-63" style="edgeStyle=orthogonalEdgeStyle;shape=connector;curved=1;rounded=0;orthogonalLoop=1;jettySize=auto;html=1;labelBackgroundColor=default;strokeColor=default;fontFamily=Helvetica;fontSize=11;fontColor=default;endArrow=classic;" parent="1" source="kAcoKQEJUVs0v133dwi2-60" target="kAcoKQEJUVs0v133dwi2-61" edge="1">
          <mxGeometry relative="1" as="geometry" />
        </mxCell>
        <mxCell id="kAcoKQEJUVs0v133dwi2-60" value="remove client" style="rounded=0;whiteSpace=wrap;html=1;fillColor=#fff2cc;strokeColor=#d6b656;" parent="1" vertex="1">
          <mxGeometry x="1960" y="670" width="120" height="40" as="geometry" />
        </mxCell>
        <mxCell id="kAcoKQEJUVs0v133dwi2-64" style="edgeStyle=orthogonalEdgeStyle;shape=connector;curved=1;rounded=0;orthogonalLoop=1;jettySize=auto;html=1;exitX=0.5;exitY=1;exitDx=0;exitDy=0;entryX=1;entryY=0.5;entryDx=0;entryDy=0;labelBackgroundColor=default;strokeColor=default;fontFamily=Helvetica;fontSize=11;fontColor=default;endArrow=classic;" parent="1" source="kAcoKQEJUVs0v133dwi2-61" target="kAcoKQEJUVs0v133dwi2-29" edge="1">
          <mxGeometry relative="1" as="geometry" />
        </mxCell>
        <mxCell id="kAcoKQEJUVs0v133dwi2-61" value="Update clients_changed for all clients" style="rounded=0;whiteSpace=wrap;html=1;fillColor=#fff2cc;strokeColor=#d6b656;" parent="1" vertex="1">
          <mxGeometry x="1960" y="750" width="120" height="40" as="geometry" />
        </mxCell>
        <mxCell id="kAcoKQEJUVs0v133dwi2-69" style="edgeStyle=orthogonalEdgeStyle;shape=connector;curved=1;rounded=0;orthogonalLoop=1;jettySize=auto;html=1;entryX=1;entryY=0.5;entryDx=0;entryDy=0;labelBackgroundColor=default;strokeColor=default;fontFamily=Helvetica;fontSize=11;fontColor=default;endArrow=classic;" parent="1" source="kAcoKQEJUVs0v133dwi2-67" target="kAcoKQEJUVs0v133dwi2-29" edge="1">
          <mxGeometry relative="1" as="geometry">
            <Array as="points">
              <mxPoint x="1860" y="900" />
            </Array>
          </mxGeometry>
        </mxCell>
        <mxCell id="kAcoKQEJUVs0v133dwi2-67" value="postpone check ping timeout" style="rounded=0;whiteSpace=wrap;html=1;fillColor=#fff2cc;strokeColor=#d6b656;" parent="1" vertex="1">
          <mxGeometry x="1800" y="630" width="120" height="40" as="geometry" />
        </mxCell>
        <mxCell id="kAcoKQEJUVs0v133dwi2-116" style="edgeStyle=orthogonalEdgeStyle;shape=connector;curved=1;rounded=0;orthogonalLoop=1;jettySize=auto;html=1;labelBackgroundColor=default;strokeColor=default;fontFamily=Helvetica;fontSize=11;fontColor=default;endArrow=classic;" parent="1" source="kAcoKQEJUVs0v133dwi2-114" target="kAcoKQEJUVs0v133dwi2-115" edge="1">
          <mxGeometry relative="1" as="geometry" />
        </mxCell>
        <mxCell id="kAcoKQEJUVs0v133dwi2-114" value="sock_.&lt;b&gt;async_connect&lt;/b&gt;()&lt;br&gt;=&amp;gt; on_connect()" style="rounded=0;whiteSpace=wrap;html=1;fillColor=#fff2cc;strokeColor=#d6b656;" parent="1" vertex="1">
          <mxGeometry x="-350" y="325" width="160" height="50" as="geometry" />
        </mxCell>
        <mxCell id="kAcoKQEJUVs0v133dwi2-120" style="edgeStyle=orthogonalEdgeStyle;shape=connector;curved=1;rounded=0;orthogonalLoop=1;jettySize=auto;html=1;exitX=0.5;exitY=1;exitDx=0;exitDy=0;labelBackgroundColor=default;strokeColor=default;fontFamily=Helvetica;fontSize=11;fontColor=default;endArrow=classic;" parent="1" source="kAcoKQEJUVs0v133dwi2-115" target="kAcoKQEJUVs0v133dwi2-117" edge="1">
          <mxGeometry relative="1" as="geometry" />
        </mxCell>
        <mxCell id="kAcoKQEJUVs0v133dwi2-128" style="edgeStyle=orthogonalEdgeStyle;shape=connector;curved=1;rounded=0;orthogonalLoop=1;jettySize=auto;html=1;labelBackgroundColor=default;strokeColor=default;fontFamily=Helvetica;fontSize=11;fontColor=default;endArrow=classic;exitX=0.5;exitY=1;exitDx=0;exitDy=0;" parent="1" source="kAcoKQEJUVs0v133dwi2-115" target="kAcoKQEJUVs0v133dwi2-125" edge="1">
          <mxGeometry relative="1" as="geometry" />
        </mxCell>
        <mxCell id="kAcoKQEJUVs0v133dwi2-133" style="edgeStyle=orthogonalEdgeStyle;shape=connector;curved=1;rounded=0;orthogonalLoop=1;jettySize=auto;html=1;exitX=0.5;exitY=1;exitDx=0;exitDy=0;labelBackgroundColor=default;strokeColor=default;fontFamily=Helvetica;fontSize=11;fontColor=default;endArrow=classic;" parent="1" source="kAcoKQEJUVs0v133dwi2-115" target="kAcoKQEJUVs0v133dwi2-132" edge="1">
          <mxGeometry relative="1" as="geometry" />
        </mxCell>
        <mxCell id="kAcoKQEJUVs0v133dwi2-168" style="edgeStyle=orthogonalEdgeStyle;shape=connector;curved=1;rounded=0;orthogonalLoop=1;jettySize=auto;html=1;exitX=0.5;exitY=1;exitDx=0;exitDy=0;labelBackgroundColor=default;strokeColor=default;fontFamily=Helvetica;fontSize=11;fontColor=default;endArrow=classic;" parent="1" source="kAcoKQEJUVs0v133dwi2-115" target="kAcoKQEJUVs0v133dwi2-165" edge="1">
          <mxGeometry relative="1" as="geometry" />
        </mxCell>
        <mxCell id="kAcoKQEJUVs0v133dwi2-115" value="Boost.Asio" style="shape=process;whiteSpace=wrap;html=1;backgroundOutline=1;fontFamily=Helvetica;fontSize=11;fillColor=#fff2cc;strokeColor=#d6b656;" parent="1" vertex="1">
          <mxGeometry x="-330" y="400" width="120" height="40" as="geometry" />
        </mxCell>
        <mxCell id="kAcoKQEJUVs0v133dwi2-119" style="edgeStyle=orthogonalEdgeStyle;shape=connector;curved=1;rounded=0;orthogonalLoop=1;jettySize=auto;html=1;labelBackgroundColor=default;strokeColor=default;fontFamily=Helvetica;fontSize=11;fontColor=default;endArrow=classic;" parent="1" source="kAcoKQEJUVs0v133dwi2-117" target="kAcoKQEJUVs0v133dwi2-118" edge="1">
          <mxGeometry relative="1" as="geometry" />
        </mxCell>
        <mxCell id="kAcoKQEJUVs0v133dwi2-117" value="on_connect" style="rounded=0;whiteSpace=wrap;html=1;fillColor=#fff2cc;strokeColor=#d6b656;" parent="1" vertex="1">
          <mxGeometry x="-400" y="490" width="160" height="30" as="geometry" />
        </mxCell>
        <mxCell id="kAcoKQEJUVs0v133dwi2-122" style="edgeStyle=orthogonalEdgeStyle;shape=connector;curved=1;rounded=0;orthogonalLoop=1;jettySize=auto;html=1;labelBackgroundColor=default;strokeColor=default;fontFamily=Helvetica;fontSize=11;fontColor=default;endArrow=classic;entryX=0.5;entryY=0;entryDx=0;entryDy=0;" parent="1" source="kAcoKQEJUVs0v133dwi2-118" target="kAcoKQEJUVs0v133dwi2-150" edge="1">
          <mxGeometry relative="1" as="geometry">
            <mxPoint x="-390" y="610.0000000000002" as="targetPoint" />
          </mxGeometry>
        </mxCell>
        <mxCell id="kAcoKQEJUVs0v133dwi2-118" value="do_write &quot;login&quot;" style="rounded=0;whiteSpace=wrap;html=1;fillColor=#fff2cc;strokeColor=#d6b656;" parent="1" vertex="1">
          <mxGeometry x="-400" y="545" width="160" height="30" as="geometry" />
        </mxCell>
        <mxCell id="kAcoKQEJUVs0v133dwi2-162" style="edgeStyle=orthogonalEdgeStyle;shape=connector;rounded=0;orthogonalLoop=1;jettySize=auto;html=1;entryX=1;entryY=0.5;entryDx=0;entryDy=0;labelBackgroundColor=default;strokeColor=default;fontFamily=Helvetica;fontSize=11;fontColor=default;endArrow=classic;" parent="1" source="kAcoKQEJUVs0v133dwi2-123" target="kAcoKQEJUVs0v133dwi2-115" edge="1">
          <mxGeometry relative="1" as="geometry">
            <Array as="points">
              <mxPoint x="-180" y="960" />
              <mxPoint x="200" y="960" />
              <mxPoint x="200" y="420" />
            </Array>
          </mxGeometry>
        </mxCell>
        <mxCell id="kAcoKQEJUVs0v133dwi2-123" value="" style="rounded=0;whiteSpace=wrap;html=1;fillColor=#fff2cc;strokeColor=#d6b656;" parent="1" vertex="1">
          <mxGeometry x="-240" y="900" width="120" height="40" as="geometry" />
        </mxCell>
        <mxCell id="kAcoKQEJUVs0v133dwi2-129" style="edgeStyle=orthogonalEdgeStyle;shape=connector;curved=1;rounded=0;orthogonalLoop=1;jettySize=auto;html=1;labelBackgroundColor=default;strokeColor=default;fontFamily=Helvetica;fontSize=11;fontColor=default;endArrow=classic;" parent="1" source="kAcoKQEJUVs0v133dwi2-125" target="kAcoKQEJUVs0v133dwi2-126" edge="1">
          <mxGeometry relative="1" as="geometry" />
        </mxCell>
        <mxCell id="kAcoKQEJUVs0v133dwi2-125" value="on_write" style="rounded=0;whiteSpace=wrap;html=1;fillColor=#fff2cc;strokeColor=#d6b656;" parent="1" vertex="1">
          <mxGeometry x="-760" y="490" width="160" height="30" as="geometry" />
        </mxCell>
        <mxCell id="kAcoKQEJUVs0v133dwi2-130" style="edgeStyle=orthogonalEdgeStyle;shape=connector;curved=1;rounded=0;orthogonalLoop=1;jettySize=auto;html=1;labelBackgroundColor=default;strokeColor=default;fontFamily=Helvetica;fontSize=11;fontColor=default;endArrow=classic;" parent="1" source="kAcoKQEJUVs0v133dwi2-126" target="kAcoKQEJUVs0v133dwi2-127" edge="1">
          <mxGeometry relative="1" as="geometry" />
        </mxCell>
        <mxCell id="kAcoKQEJUVs0v133dwi2-126" value="do_read()" style="rounded=0;whiteSpace=wrap;html=1;fillColor=#fff2cc;strokeColor=#d6b656;" parent="1" vertex="1">
          <mxGeometry x="-760" y="545" width="160" height="30" as="geometry" />
        </mxCell>
        <mxCell id="kAcoKQEJUVs0v133dwi2-131" style="edgeStyle=orthogonalEdgeStyle;shape=connector;curved=1;rounded=0;orthogonalLoop=1;jettySize=auto;html=1;exitX=0.5;exitY=1;exitDx=0;exitDy=0;entryX=0;entryY=0.5;entryDx=0;entryDy=0;labelBackgroundColor=default;strokeColor=default;fontFamily=Helvetica;fontSize=11;fontColor=default;endArrow=classic;" parent="1" source="kAcoKQEJUVs0v133dwi2-127" target="kAcoKQEJUVs0v133dwi2-123" edge="1">
          <mxGeometry relative="1" as="geometry" />
        </mxCell>
        <mxCell id="kAcoKQEJUVs0v133dwi2-127" value="&lt;b&gt;async_read&lt;/b&gt;(sock_, ...)&lt;br&gt;=&amp;gt; on_read" style="rounded=0;whiteSpace=wrap;html=1;fillColor=#fff2cc;strokeColor=#d6b656;" parent="1" vertex="1">
          <mxGeometry x="-760" y="820" width="160" height="50" as="geometry" />
        </mxCell>
        <mxCell id="kAcoKQEJUVs0v133dwi2-137" style="edgeStyle=orthogonalEdgeStyle;shape=connector;curved=1;rounded=0;orthogonalLoop=1;jettySize=auto;html=1;labelBackgroundColor=default;strokeColor=default;fontFamily=Helvetica;fontSize=11;fontColor=default;endArrow=classic;exitX=0.5;exitY=1;exitDx=0;exitDy=0;" parent="1" source="kAcoKQEJUVs0v133dwi2-132" target="kAcoKQEJUVs0v133dwi2-134" edge="1">
          <mxGeometry relative="1" as="geometry" />
        </mxCell>
        <mxCell id="kAcoKQEJUVs0v133dwi2-138" style="edgeStyle=orthogonalEdgeStyle;shape=connector;curved=1;rounded=0;orthogonalLoop=1;jettySize=auto;html=1;labelBackgroundColor=default;strokeColor=default;fontFamily=Helvetica;fontSize=11;fontColor=default;endArrow=classic;" parent="1" source="kAcoKQEJUVs0v133dwi2-132" target="kAcoKQEJUVs0v133dwi2-135" edge="1">
          <mxGeometry relative="1" as="geometry" />
        </mxCell>
        <mxCell id="kAcoKQEJUVs0v133dwi2-139" style="edgeStyle=orthogonalEdgeStyle;shape=connector;curved=1;rounded=0;orthogonalLoop=1;jettySize=auto;html=1;labelBackgroundColor=default;strokeColor=default;fontFamily=Helvetica;fontSize=11;fontColor=default;endArrow=classic;exitX=0.5;exitY=1;exitDx=0;exitDy=0;" parent="1" source="kAcoKQEJUVs0v133dwi2-132" target="kAcoKQEJUVs0v133dwi2-136" edge="1">
          <mxGeometry relative="1" as="geometry" />
        </mxCell>
        <mxCell id="kAcoKQEJUVs0v133dwi2-132" value="on_read" style="rounded=0;whiteSpace=wrap;html=1;fillColor=#fff2cc;strokeColor=#d6b656;" parent="1" vertex="1">
          <mxGeometry x="-100" y="490" width="160" height="30" as="geometry" />
        </mxCell>
        <mxCell id="kAcoKQEJUVs0v133dwi2-143" style="edgeStyle=orthogonalEdgeStyle;shape=connector;curved=1;rounded=0;orthogonalLoop=1;jettySize=auto;html=1;labelBackgroundColor=default;strokeColor=default;fontFamily=Helvetica;fontSize=11;fontColor=default;endArrow=classic;" parent="1" source="kAcoKQEJUVs0v133dwi2-134" target="kAcoKQEJUVs0v133dwi2-140" edge="1">
          <mxGeometry relative="1" as="geometry" />
        </mxCell>
        <mxCell id="kAcoKQEJUVs0v133dwi2-134" value="&quot;login&quot;" style="rounded=1;whiteSpace=wrap;html=1;arcSize=50;fillColor=#fff2cc;strokeColor=#d6b656;" parent="1" vertex="1">
          <mxGeometry x="-210" y="570" width="100" height="30" as="geometry" />
        </mxCell>
        <mxCell id="kAcoKQEJUVs0v133dwi2-144" style="edgeStyle=orthogonalEdgeStyle;shape=connector;curved=1;rounded=0;orthogonalLoop=1;jettySize=auto;html=1;labelBackgroundColor=default;strokeColor=default;fontFamily=Helvetica;fontSize=11;fontColor=default;endArrow=classic;" parent="1" source="kAcoKQEJUVs0v133dwi2-135" target="kAcoKQEJUVs0v133dwi2-141" edge="1">
          <mxGeometry relative="1" as="geometry" />
        </mxCell>
        <mxCell id="kAcoKQEJUVs0v133dwi2-135" value="&quot;ping&quot;" style="rounded=1;whiteSpace=wrap;html=1;arcSize=50;fillColor=#fff2cc;strokeColor=#d6b656;" parent="1" vertex="1">
          <mxGeometry x="-70" y="570" width="100" height="30" as="geometry" />
        </mxCell>
        <mxCell id="kAcoKQEJUVs0v133dwi2-145" style="edgeStyle=orthogonalEdgeStyle;shape=connector;curved=1;rounded=0;orthogonalLoop=1;jettySize=auto;html=1;labelBackgroundColor=default;strokeColor=default;fontFamily=Helvetica;fontSize=11;fontColor=default;endArrow=classic;" parent="1" source="kAcoKQEJUVs0v133dwi2-136" target="kAcoKQEJUVs0v133dwi2-142" edge="1">
          <mxGeometry relative="1" as="geometry" />
        </mxCell>
        <mxCell id="kAcoKQEJUVs0v133dwi2-136" value="&quot;clients&quot;" style="rounded=1;whiteSpace=wrap;html=1;arcSize=50;fillColor=#fff2cc;strokeColor=#d6b656;" parent="1" vertex="1">
          <mxGeometry x="80" y="570" width="100" height="30" as="geometry" />
        </mxCell>
        <mxCell id="kAcoKQEJUVs0v133dwi2-148" style="edgeStyle=orthogonalEdgeStyle;shape=connector;curved=1;rounded=0;orthogonalLoop=1;jettySize=auto;html=1;labelBackgroundColor=default;strokeColor=default;fontFamily=Helvetica;fontSize=11;fontColor=default;endArrow=classic;" parent="1" source="kAcoKQEJUVs0v133dwi2-140" target="kAcoKQEJUVs0v133dwi2-146" edge="1">
          <mxGeometry relative="1" as="geometry" />
        </mxCell>
        <mxCell id="kAcoKQEJUVs0v133dwi2-140" value="on_login" style="rounded=0;whiteSpace=wrap;html=1;fillColor=#fff2cc;strokeColor=#d6b656;" parent="1" vertex="1">
          <mxGeometry x="-210" y="625" width="100" height="30" as="geometry" />
        </mxCell>
        <mxCell id="kAcoKQEJUVs0v133dwi2-153" style="edgeStyle=orthogonalEdgeStyle;shape=connector;curved=1;rounded=0;orthogonalLoop=1;jettySize=auto;html=1;entryX=0.75;entryY=0;entryDx=0;entryDy=0;labelBackgroundColor=default;strokeColor=default;fontFamily=Helvetica;fontSize=11;fontColor=default;endArrow=classic;exitX=0.25;exitY=1;exitDx=0;exitDy=0;" parent="1" source="kAcoKQEJUVs0v133dwi2-141" target="kAcoKQEJUVs0v133dwi2-146" edge="1">
          <mxGeometry relative="1" as="geometry" />
        </mxCell>
        <mxCell id="kAcoKQEJUVs0v133dwi2-155" style="edgeStyle=orthogonalEdgeStyle;shape=connector;curved=1;rounded=0;orthogonalLoop=1;jettySize=auto;html=1;labelBackgroundColor=default;strokeColor=default;fontFamily=Helvetica;fontSize=11;fontColor=default;endArrow=classic;entryX=0.25;entryY=0;entryDx=0;entryDy=0;" parent="1" source="kAcoKQEJUVs0v133dwi2-141" target="kAcoKQEJUVs0v133dwi2-154" edge="1">
          <mxGeometry relative="1" as="geometry" />
        </mxCell>
        <mxCell id="kAcoKQEJUVs0v133dwi2-141" value="on_ping" style="rounded=0;whiteSpace=wrap;html=1;fillColor=#fff2cc;strokeColor=#d6b656;" parent="1" vertex="1">
          <mxGeometry x="-70" y="625" width="100" height="30" as="geometry" />
        </mxCell>
        <mxCell id="kAcoKQEJUVs0v133dwi2-159" style="edgeStyle=orthogonalEdgeStyle;shape=connector;curved=1;rounded=0;orthogonalLoop=1;jettySize=auto;html=1;entryX=0.75;entryY=0;entryDx=0;entryDy=0;labelBackgroundColor=default;strokeColor=default;fontFamily=Helvetica;fontSize=11;fontColor=default;endArrow=classic;exitX=0.5;exitY=1;exitDx=0;exitDy=0;" parent="1" source="kAcoKQEJUVs0v133dwi2-142" target="kAcoKQEJUVs0v133dwi2-154" edge="1">
          <mxGeometry relative="1" as="geometry" />
        </mxCell>
        <mxCell id="kAcoKQEJUVs0v133dwi2-142" value="on_clients" style="rounded=0;whiteSpace=wrap;html=1;fillColor=#fff2cc;strokeColor=#d6b656;" parent="1" vertex="1">
          <mxGeometry x="80" y="625" width="100" height="30" as="geometry" />
        </mxCell>
        <mxCell id="kAcoKQEJUVs0v133dwi2-149" style="edgeStyle=orthogonalEdgeStyle;shape=connector;curved=1;rounded=0;orthogonalLoop=1;jettySize=auto;html=1;labelBackgroundColor=default;strokeColor=default;fontFamily=Helvetica;fontSize=11;fontColor=default;endArrow=classic;" parent="1" source="kAcoKQEJUVs0v133dwi2-146" target="kAcoKQEJUVs0v133dwi2-147" edge="1">
          <mxGeometry relative="1" as="geometry" />
        </mxCell>
        <mxCell id="kAcoKQEJUVs0v133dwi2-146" value="do_ask_clients" style="rounded=0;whiteSpace=wrap;html=1;fillColor=#fff2cc;strokeColor=#d6b656;" parent="1" vertex="1">
          <mxGeometry x="-210" y="695" width="100" height="30" as="geometry" />
        </mxCell>
        <mxCell id="kAcoKQEJUVs0v133dwi2-151" style="edgeStyle=orthogonalEdgeStyle;shape=connector;curved=1;rounded=0;orthogonalLoop=1;jettySize=auto;html=1;labelBackgroundColor=default;strokeColor=default;fontFamily=Helvetica;fontSize=11;fontColor=default;endArrow=classic;entryX=0.75;entryY=0;entryDx=0;entryDy=0;" parent="1" source="kAcoKQEJUVs0v133dwi2-147" target="kAcoKQEJUVs0v133dwi2-150" edge="1">
          <mxGeometry relative="1" as="geometry" />
        </mxCell>
        <mxCell id="kAcoKQEJUVs0v133dwi2-147" value="do_write &quot;ask_clients&quot;" style="rounded=0;whiteSpace=wrap;html=1;fillColor=#fff2cc;strokeColor=#d6b656;" parent="1" vertex="1">
          <mxGeometry x="-210" y="750" width="100" height="30" as="geometry" />
        </mxCell>
        <mxCell id="kAcoKQEJUVs0v133dwi2-152" style="edgeStyle=orthogonalEdgeStyle;shape=connector;curved=1;rounded=0;orthogonalLoop=1;jettySize=auto;html=1;entryX=0;entryY=0.25;entryDx=0;entryDy=0;labelBackgroundColor=default;strokeColor=default;fontFamily=Helvetica;fontSize=11;fontColor=default;endArrow=classic;" parent="1" source="kAcoKQEJUVs0v133dwi2-150" target="kAcoKQEJUVs0v133dwi2-123" edge="1">
          <mxGeometry relative="1" as="geometry" />
        </mxCell>
        <mxCell id="kAcoKQEJUVs0v133dwi2-150" value="sock_.&lt;b&gt;async_write_some&lt;/b&gt;&lt;br&gt;=&amp;gt;&amp;nbsp;on_write" style="rounded=0;whiteSpace=wrap;html=1;fillColor=#fff2cc;strokeColor=#d6b656;" parent="1" vertex="1">
          <mxGeometry x="-400" y="820" width="160" height="50" as="geometry" />
        </mxCell>
        <mxCell id="kAcoKQEJUVs0v133dwi2-157" style="edgeStyle=orthogonalEdgeStyle;shape=connector;curved=1;rounded=0;orthogonalLoop=1;jettySize=auto;html=1;labelBackgroundColor=default;strokeColor=default;fontFamily=Helvetica;fontSize=11;fontColor=default;endArrow=classic;" parent="1" source="kAcoKQEJUVs0v133dwi2-154" target="kAcoKQEJUVs0v133dwi2-156" edge="1">
          <mxGeometry relative="1" as="geometry" />
        </mxCell>
        <mxCell id="kAcoKQEJUVs0v133dwi2-154" value="postpone_ping" style="rounded=0;whiteSpace=wrap;html=1;fillColor=#fff2cc;strokeColor=#d6b656;" parent="1" vertex="1">
          <mxGeometry x="5" y="695" width="100" height="30" as="geometry" />
        </mxCell>
        <mxCell id="kAcoKQEJUVs0v133dwi2-158" style="edgeStyle=orthogonalEdgeStyle;shape=connector;curved=1;rounded=0;orthogonalLoop=1;jettySize=auto;html=1;entryX=1;entryY=0.5;entryDx=0;entryDy=0;labelBackgroundColor=default;strokeColor=default;fontFamily=Helvetica;fontSize=11;fontColor=default;endArrow=classic;exitX=0.5;exitY=1;exitDx=0;exitDy=0;" parent="1" source="kAcoKQEJUVs0v133dwi2-156" target="kAcoKQEJUVs0v133dwi2-123" edge="1">
          <mxGeometry relative="1" as="geometry" />
        </mxCell>
        <mxCell id="kAcoKQEJUVs0v133dwi2-156" value="&lt;div&gt;timer_.&lt;b&gt;expires_from_now&lt;/b&gt;(100ms);&lt;/div&gt;&lt;div&gt;timer_.&lt;b&gt;async_wait&lt;/b&gt;();&lt;br&gt;=&amp;gt; do_ping&lt;/div&gt;" style="rounded=0;whiteSpace=wrap;html=1;fillColor=#fff2cc;strokeColor=#d6b656;" parent="1" vertex="1">
          <mxGeometry x="-60" y="820" width="230" height="50" as="geometry" />
        </mxCell>
        <mxCell id="kAcoKQEJUVs0v133dwi2-161" style="edgeStyle=orthogonalEdgeStyle;shape=connector;curved=1;rounded=0;orthogonalLoop=1;jettySize=auto;html=1;labelBackgroundColor=default;strokeColor=default;fontFamily=Helvetica;fontSize=11;fontColor=default;endArrow=classic;" parent="1" source="kAcoKQEJUVs0v133dwi2-160" target="kAcoKQEJUVs0v133dwi2-114" edge="1">
          <mxGeometry relative="1" as="geometry" />
        </mxCell>
        <mxCell id="kAcoKQEJUVs0v133dwi2-160" value="Async Client Start" style="rounded=1;whiteSpace=wrap;html=1;arcSize=50;fillColor=#fff2cc;strokeColor=#d6b656;" parent="1" vertex="1">
          <mxGeometry x="-320" y="265" width="100" height="40" as="geometry" />
        </mxCell>
        <mxCell id="kAcoKQEJUVs0v133dwi2-164" style="edgeStyle=orthogonalEdgeStyle;shape=connector;curved=1;rounded=0;orthogonalLoop=1;jettySize=auto;html=1;labelBackgroundColor=default;strokeColor=default;fontFamily=Helvetica;fontSize=11;fontColor=default;endArrow=classic;" parent="1" source="kAcoKQEJUVs0v133dwi2-165" target="kAcoKQEJUVs0v133dwi2-166" edge="1">
          <mxGeometry relative="1" as="geometry" />
        </mxCell>
        <mxCell id="kAcoKQEJUVs0v133dwi2-165" value="do_ping" style="rounded=0;whiteSpace=wrap;html=1;fillColor=#fff2cc;strokeColor=#d6b656;" parent="1" vertex="1">
          <mxGeometry x="-580" y="490" width="160" height="30" as="geometry" />
        </mxCell>
        <mxCell id="kAcoKQEJUVs0v133dwi2-167" style="edgeStyle=orthogonalEdgeStyle;shape=connector;curved=1;rounded=0;orthogonalLoop=1;jettySize=auto;html=1;entryX=0.25;entryY=0;entryDx=0;entryDy=0;labelBackgroundColor=default;strokeColor=default;fontFamily=Helvetica;fontSize=11;fontColor=default;endArrow=classic;exitX=0.5;exitY=1;exitDx=0;exitDy=0;" parent="1" source="kAcoKQEJUVs0v133dwi2-166" target="kAcoKQEJUVs0v133dwi2-150" edge="1">
          <mxGeometry relative="1" as="geometry" />
        </mxCell>
        <mxCell id="kAcoKQEJUVs0v133dwi2-166" value="do_write &quot;ping&quot;" style="rounded=0;whiteSpace=wrap;html=1;fillColor=#fff2cc;strokeColor=#d6b656;" parent="1" vertex="1">
          <mxGeometry x="-580" y="545" width="160" height="30" as="geometry" />
        </mxCell>
        <mxCell id="hCo_YHvKCPVoNhsYgSlq-5" style="edgeStyle=orthogonalEdgeStyle;shape=connector;curved=1;rounded=0;orthogonalLoop=1;jettySize=auto;html=1;labelBackgroundColor=default;strokeColor=default;fontFamily=Helvetica;fontSize=11;fontColor=default;endArrow=classic;" edge="1" parent="1" source="hCo_YHvKCPVoNhsYgSlq-1" target="hCo_YHvKCPVoNhsYgSlq-4">
          <mxGeometry relative="1" as="geometry" />
        </mxCell>
        <mxCell id="hCo_YHvKCPVoNhsYgSlq-1" value="ip::tcp::&lt;b&gt;acceptor&lt;/b&gt;&lt;br&gt;acceptor.&lt;b&gt;async_accept&lt;/b&gt;()&lt;br&gt;=&amp;gt;&amp;nbsp;handle_accept&lt;span style=&quot;background-color: initial;&quot;&gt;()&lt;/span&gt;" style="rounded=0;whiteSpace=wrap;html=1;fillColor=#fff2cc;strokeColor=#d6b656;" vertex="1" parent="1">
          <mxGeometry x="-1920" y="290" width="160" height="50" as="geometry" />
        </mxCell>
        <mxCell id="hCo_YHvKCPVoNhsYgSlq-2" style="edgeStyle=orthogonalEdgeStyle;shape=connector;curved=1;rounded=0;orthogonalLoop=1;jettySize=auto;html=1;labelBackgroundColor=default;strokeColor=default;fontFamily=Helvetica;fontSize=11;fontColor=default;endArrow=classic;" edge="1" source="hCo_YHvKCPVoNhsYgSlq-3" target="hCo_YHvKCPVoNhsYgSlq-1" parent="1">
          <mxGeometry relative="1" as="geometry" />
        </mxCell>
        <mxCell id="hCo_YHvKCPVoNhsYgSlq-3" value="Async Server Start" style="rounded=1;whiteSpace=wrap;html=1;arcSize=50;fillColor=#fff2cc;strokeColor=#d6b656;" vertex="1" parent="1">
          <mxGeometry x="-1890" y="230" width="100" height="40" as="geometry" />
        </mxCell>
        <mxCell id="hCo_YHvKCPVoNhsYgSlq-7" style="edgeStyle=orthogonalEdgeStyle;shape=connector;curved=1;rounded=0;orthogonalLoop=1;jettySize=auto;html=1;labelBackgroundColor=default;strokeColor=default;fontFamily=Helvetica;fontSize=11;fontColor=default;endArrow=classic;exitX=0.5;exitY=1;exitDx=0;exitDy=0;" edge="1" parent="1" source="hCo_YHvKCPVoNhsYgSlq-4" target="hCo_YHvKCPVoNhsYgSlq-6">
          <mxGeometry relative="1" as="geometry" />
        </mxCell>
        <mxCell id="hCo_YHvKCPVoNhsYgSlq-17" style="edgeStyle=orthogonalEdgeStyle;shape=connector;curved=1;rounded=0;orthogonalLoop=1;jettySize=auto;html=1;exitX=0.5;exitY=1;exitDx=0;exitDy=0;labelBackgroundColor=default;strokeColor=default;fontFamily=Helvetica;fontSize=11;fontColor=default;endArrow=classic;" edge="1" parent="1" source="hCo_YHvKCPVoNhsYgSlq-4" target="hCo_YHvKCPVoNhsYgSlq-16">
          <mxGeometry relative="1" as="geometry" />
        </mxCell>
        <mxCell id="hCo_YHvKCPVoNhsYgSlq-50" style="edgeStyle=orthogonalEdgeStyle;shape=connector;curved=1;rounded=0;orthogonalLoop=1;jettySize=auto;html=1;exitX=0.5;exitY=1;exitDx=0;exitDy=0;entryX=0.5;entryY=0;entryDx=0;entryDy=0;labelBackgroundColor=default;strokeColor=default;fontFamily=Helvetica;fontSize=11;fontColor=default;endArrow=classic;" edge="1" parent="1" source="hCo_YHvKCPVoNhsYgSlq-4" target="hCo_YHvKCPVoNhsYgSlq-49">
          <mxGeometry relative="1" as="geometry" />
        </mxCell>
        <mxCell id="hCo_YHvKCPVoNhsYgSlq-61" style="edgeStyle=orthogonalEdgeStyle;shape=connector;curved=1;rounded=0;orthogonalLoop=1;jettySize=auto;html=1;exitX=0.5;exitY=1;exitDx=0;exitDy=0;entryX=0.5;entryY=0;entryDx=0;entryDy=0;labelBackgroundColor=default;strokeColor=default;fontFamily=Helvetica;fontSize=11;fontColor=default;endArrow=classic;" edge="1" parent="1" source="hCo_YHvKCPVoNhsYgSlq-4" target="hCo_YHvKCPVoNhsYgSlq-60">
          <mxGeometry relative="1" as="geometry" />
        </mxCell>
        <mxCell id="hCo_YHvKCPVoNhsYgSlq-4" value="Boost.Asio" style="shape=process;whiteSpace=wrap;html=1;backgroundOutline=1;fontFamily=Helvetica;fontSize=11;fillColor=#fff2cc;strokeColor=#d6b656;" vertex="1" parent="1">
          <mxGeometry x="-1900" y="360" width="120" height="40" as="geometry" />
        </mxCell>
        <mxCell id="hCo_YHvKCPVoNhsYgSlq-10" style="edgeStyle=orthogonalEdgeStyle;shape=connector;curved=1;rounded=0;orthogonalLoop=1;jettySize=auto;html=1;labelBackgroundColor=default;strokeColor=default;fontFamily=Helvetica;fontSize=11;fontColor=default;endArrow=classic;" edge="1" parent="1" source="hCo_YHvKCPVoNhsYgSlq-6" target="hCo_YHvKCPVoNhsYgSlq-8">
          <mxGeometry relative="1" as="geometry" />
        </mxCell>
        <mxCell id="hCo_YHvKCPVoNhsYgSlq-6" value="handle_accept" style="rounded=0;whiteSpace=wrap;html=1;fillColor=#fff2cc;strokeColor=#d6b656;" vertex="1" parent="1">
          <mxGeometry x="-2030" y="510" width="160" height="30" as="geometry" />
        </mxCell>
        <mxCell id="hCo_YHvKCPVoNhsYgSlq-11" style="edgeStyle=orthogonalEdgeStyle;shape=connector;curved=1;rounded=0;orthogonalLoop=1;jettySize=auto;html=1;labelBackgroundColor=default;strokeColor=default;fontFamily=Helvetica;fontSize=11;fontColor=default;endArrow=classic;entryX=0.25;entryY=0;entryDx=0;entryDy=0;" edge="1" parent="1" source="hCo_YHvKCPVoNhsYgSlq-8" target="hCo_YHvKCPVoNhsYgSlq-51">
          <mxGeometry relative="1" as="geometry">
            <mxPoint x="-1920" y="655" as="targetPoint" />
          </mxGeometry>
        </mxCell>
        <mxCell id="hCo_YHvKCPVoNhsYgSlq-8" value="client.start()&lt;br&gt;clients.push_back(shared_from_this())" style="rounded=0;whiteSpace=wrap;html=1;fillColor=#fff2cc;strokeColor=#d6b656;" vertex="1" parent="1">
          <mxGeometry x="-2070" y="590" width="240" height="30" as="geometry" />
        </mxCell>
        <mxCell id="hCo_YHvKCPVoNhsYgSlq-15" style="edgeStyle=orthogonalEdgeStyle;shape=connector;curved=1;rounded=0;orthogonalLoop=1;jettySize=auto;html=1;exitX=0.5;exitY=1;exitDx=0;exitDy=0;entryX=1;entryY=0.5;entryDx=0;entryDy=0;labelBackgroundColor=default;strokeColor=default;fontFamily=Helvetica;fontSize=11;fontColor=default;endArrow=classic;" edge="1" parent="1" source="hCo_YHvKCPVoNhsYgSlq-86" target="hCo_YHvKCPVoNhsYgSlq-14">
          <mxGeometry relative="1" as="geometry" />
        </mxCell>
        <mxCell id="hCo_YHvKCPVoNhsYgSlq-85" style="edgeStyle=orthogonalEdgeStyle;shape=connector;rounded=0;orthogonalLoop=1;jettySize=auto;html=1;exitX=0.5;exitY=1;exitDx=0;exitDy=0;entryX=1;entryY=0.5;entryDx=0;entryDy=0;labelBackgroundColor=default;strokeColor=default;fontFamily=Helvetica;fontSize=11;fontColor=default;endArrow=classic;" edge="1" parent="1" source="hCo_YHvKCPVoNhsYgSlq-14" target="hCo_YHvKCPVoNhsYgSlq-4">
          <mxGeometry relative="1" as="geometry">
            <Array as="points">
              <mxPoint x="-2160" y="1100" />
              <mxPoint x="-1220" y="1100" />
              <mxPoint x="-1220" y="380" />
            </Array>
          </mxGeometry>
        </mxCell>
        <mxCell id="hCo_YHvKCPVoNhsYgSlq-14" value="" style="rounded=0;whiteSpace=wrap;html=1;fillColor=#fff2cc;strokeColor=#d6b656;" vertex="1" parent="1">
          <mxGeometry x="-2220" y="1040" width="120" height="40" as="geometry" />
        </mxCell>
        <mxCell id="hCo_YHvKCPVoNhsYgSlq-21" style="edgeStyle=orthogonalEdgeStyle;shape=connector;curved=1;rounded=0;orthogonalLoop=1;jettySize=auto;html=1;exitX=0.5;exitY=1;exitDx=0;exitDy=0;labelBackgroundColor=default;strokeColor=default;fontFamily=Helvetica;fontSize=11;fontColor=default;endArrow=classic;" edge="1" parent="1" source="hCo_YHvKCPVoNhsYgSlq-16" target="hCo_YHvKCPVoNhsYgSlq-18">
          <mxGeometry relative="1" as="geometry" />
        </mxCell>
        <mxCell id="hCo_YHvKCPVoNhsYgSlq-22" style="edgeStyle=orthogonalEdgeStyle;shape=connector;curved=1;rounded=0;orthogonalLoop=1;jettySize=auto;html=1;exitX=0.5;exitY=1;exitDx=0;exitDy=0;entryX=0.5;entryY=0;entryDx=0;entryDy=0;labelBackgroundColor=default;strokeColor=default;fontFamily=Helvetica;fontSize=11;fontColor=default;endArrow=classic;" edge="1" parent="1" source="hCo_YHvKCPVoNhsYgSlq-16" target="hCo_YHvKCPVoNhsYgSlq-19">
          <mxGeometry relative="1" as="geometry" />
        </mxCell>
        <mxCell id="hCo_YHvKCPVoNhsYgSlq-23" style="edgeStyle=orthogonalEdgeStyle;shape=connector;curved=1;rounded=0;orthogonalLoop=1;jettySize=auto;html=1;exitX=0.5;exitY=1;exitDx=0;exitDy=0;entryX=0.5;entryY=0;entryDx=0;entryDy=0;labelBackgroundColor=default;strokeColor=default;fontFamily=Helvetica;fontSize=11;fontColor=default;endArrow=classic;" edge="1" parent="1" source="hCo_YHvKCPVoNhsYgSlq-16" target="hCo_YHvKCPVoNhsYgSlq-20">
          <mxGeometry relative="1" as="geometry" />
        </mxCell>
        <mxCell id="hCo_YHvKCPVoNhsYgSlq-16" value="on_read" style="rounded=0;whiteSpace=wrap;html=1;fillColor=#fff2cc;strokeColor=#d6b656;" vertex="1" parent="1">
          <mxGeometry x="-2500" y="510" width="160" height="30" as="geometry" />
        </mxCell>
        <mxCell id="hCo_YHvKCPVoNhsYgSlq-27" style="edgeStyle=orthogonalEdgeStyle;shape=connector;curved=1;rounded=0;orthogonalLoop=1;jettySize=auto;html=1;labelBackgroundColor=default;strokeColor=default;fontFamily=Helvetica;fontSize=11;fontColor=default;endArrow=classic;" edge="1" parent="1" source="hCo_YHvKCPVoNhsYgSlq-18" target="hCo_YHvKCPVoNhsYgSlq-24">
          <mxGeometry relative="1" as="geometry" />
        </mxCell>
        <mxCell id="hCo_YHvKCPVoNhsYgSlq-18" value="&quot;login&quot;" style="rounded=1;whiteSpace=wrap;html=1;arcSize=50;fillColor=#fff2cc;strokeColor=#d6b656;" vertex="1" parent="1">
          <mxGeometry x="-2715" y="610" width="100" height="30" as="geometry" />
        </mxCell>
        <mxCell id="hCo_YHvKCPVoNhsYgSlq-28" style="edgeStyle=orthogonalEdgeStyle;shape=connector;curved=1;rounded=0;orthogonalLoop=1;jettySize=auto;html=1;labelBackgroundColor=default;strokeColor=default;fontFamily=Helvetica;fontSize=11;fontColor=default;endArrow=classic;" edge="1" parent="1" source="hCo_YHvKCPVoNhsYgSlq-19" target="hCo_YHvKCPVoNhsYgSlq-25">
          <mxGeometry relative="1" as="geometry" />
        </mxCell>
        <mxCell id="hCo_YHvKCPVoNhsYgSlq-19" value="&quot;ping&quot;" style="rounded=1;whiteSpace=wrap;html=1;arcSize=50;fillColor=#fff2cc;strokeColor=#d6b656;" vertex="1" parent="1">
          <mxGeometry x="-2470" y="610" width="100" height="30" as="geometry" />
        </mxCell>
        <mxCell id="hCo_YHvKCPVoNhsYgSlq-29" style="edgeStyle=orthogonalEdgeStyle;shape=connector;curved=1;rounded=0;orthogonalLoop=1;jettySize=auto;html=1;labelBackgroundColor=default;strokeColor=default;fontFamily=Helvetica;fontSize=11;fontColor=default;endArrow=classic;" edge="1" parent="1" source="hCo_YHvKCPVoNhsYgSlq-20" target="hCo_YHvKCPVoNhsYgSlq-26">
          <mxGeometry relative="1" as="geometry" />
        </mxCell>
        <mxCell id="hCo_YHvKCPVoNhsYgSlq-20" value="&quot;ask_clients&lt;span style=&quot;background-color: initial;&quot;&gt;&quot;&lt;/span&gt;" style="rounded=1;whiteSpace=wrap;html=1;arcSize=50;fillColor=#fff2cc;strokeColor=#d6b656;" vertex="1" parent="1">
          <mxGeometry x="-2220" y="610" width="100" height="30" as="geometry" />
        </mxCell>
        <mxCell id="hCo_YHvKCPVoNhsYgSlq-31" style="edgeStyle=orthogonalEdgeStyle;shape=connector;curved=1;rounded=0;orthogonalLoop=1;jettySize=auto;html=1;labelBackgroundColor=default;strokeColor=default;fontFamily=Helvetica;fontSize=11;fontColor=default;endArrow=classic;" edge="1" parent="1" source="hCo_YHvKCPVoNhsYgSlq-24" target="hCo_YHvKCPVoNhsYgSlq-30">
          <mxGeometry relative="1" as="geometry" />
        </mxCell>
        <mxCell id="hCo_YHvKCPVoNhsYgSlq-24" value="on_login" style="rounded=0;whiteSpace=wrap;html=1;fillColor=#fff2cc;strokeColor=#d6b656;" vertex="1" parent="1">
          <mxGeometry x="-2715" y="670" width="100" height="50" as="geometry" />
        </mxCell>
        <mxCell id="hCo_YHvKCPVoNhsYgSlq-39" style="edgeStyle=orthogonalEdgeStyle;shape=connector;curved=1;rounded=0;orthogonalLoop=1;jettySize=auto;html=1;labelBackgroundColor=default;strokeColor=default;fontFamily=Helvetica;fontSize=11;fontColor=default;endArrow=classic;" edge="1" parent="1" source="hCo_YHvKCPVoNhsYgSlq-25" target="hCo_YHvKCPVoNhsYgSlq-38">
          <mxGeometry relative="1" as="geometry" />
        </mxCell>
        <mxCell id="hCo_YHvKCPVoNhsYgSlq-25" value="on_ping" style="rounded=0;whiteSpace=wrap;html=1;fillColor=#fff2cc;strokeColor=#d6b656;" vertex="1" parent="1">
          <mxGeometry x="-2470" y="670" width="100" height="30" as="geometry" />
        </mxCell>
        <mxCell id="hCo_YHvKCPVoNhsYgSlq-47" style="edgeStyle=orthogonalEdgeStyle;shape=connector;curved=1;rounded=0;orthogonalLoop=1;jettySize=auto;html=1;labelBackgroundColor=default;strokeColor=default;fontFamily=Helvetica;fontSize=11;fontColor=default;endArrow=classic;" edge="1" parent="1" source="hCo_YHvKCPVoNhsYgSlq-26" target="hCo_YHvKCPVoNhsYgSlq-46">
          <mxGeometry relative="1" as="geometry" />
        </mxCell>
        <mxCell id="hCo_YHvKCPVoNhsYgSlq-26" value="on_clients" style="rounded=0;whiteSpace=wrap;html=1;fillColor=#fff2cc;strokeColor=#d6b656;" vertex="1" parent="1">
          <mxGeometry x="-2220" y="670" width="100" height="30" as="geometry" />
        </mxCell>
        <mxCell id="hCo_YHvKCPVoNhsYgSlq-36" style="edgeStyle=orthogonalEdgeStyle;shape=connector;curved=1;rounded=0;orthogonalLoop=1;jettySize=auto;html=1;labelBackgroundColor=default;strokeColor=default;fontFamily=Helvetica;fontSize=11;fontColor=default;endArrow=classic;exitX=0.5;exitY=1;exitDx=0;exitDy=0;" edge="1" parent="1" source="hCo_YHvKCPVoNhsYgSlq-30" target="hCo_YHvKCPVoNhsYgSlq-35">
          <mxGeometry relative="1" as="geometry" />
        </mxCell>
        <mxCell id="hCo_YHvKCPVoNhsYgSlq-30" value="do_write(&quot;login ok&quot;)" style="rounded=0;whiteSpace=wrap;html=1;fillColor=#fff2cc;strokeColor=#d6b656;" vertex="1" parent="1">
          <mxGeometry x="-2720" y="840" width="110" height="30" as="geometry" />
        </mxCell>
        <mxCell id="hCo_YHvKCPVoNhsYgSlq-37" style="edgeStyle=orthogonalEdgeStyle;shape=connector;curved=1;rounded=0;orthogonalLoop=1;jettySize=auto;html=1;entryX=0;entryY=0.5;entryDx=0;entryDy=0;labelBackgroundColor=default;strokeColor=default;fontFamily=Helvetica;fontSize=11;fontColor=default;endArrow=classic;" edge="1" parent="1" source="hCo_YHvKCPVoNhsYgSlq-35" target="hCo_YHvKCPVoNhsYgSlq-14">
          <mxGeometry relative="1" as="geometry" />
        </mxCell>
        <mxCell id="hCo_YHvKCPVoNhsYgSlq-35" value="sock_.&lt;b&gt;async_write_some&lt;/b&gt;&lt;br&gt;=&amp;gt;&amp;nbsp;on_write" style="rounded=0;whiteSpace=wrap;html=1;fillColor=#fff2cc;strokeColor=#d6b656;" vertex="1" parent="1">
          <mxGeometry x="-2500" y="930" width="160" height="50" as="geometry" />
        </mxCell>
        <mxCell id="hCo_YHvKCPVoNhsYgSlq-41" value="NO" style="edgeStyle=orthogonalEdgeStyle;shape=connector;curved=1;rounded=0;orthogonalLoop=1;jettySize=auto;html=1;exitX=0;exitY=0.5;exitDx=0;exitDy=0;labelBackgroundColor=default;strokeColor=default;fontFamily=Helvetica;fontSize=11;fontColor=default;endArrow=classic;" edge="1" parent="1" source="hCo_YHvKCPVoNhsYgSlq-38" target="hCo_YHvKCPVoNhsYgSlq-40">
          <mxGeometry x="-0.6522" y="10" relative="1" as="geometry">
            <mxPoint as="offset" />
          </mxGeometry>
        </mxCell>
        <mxCell id="hCo_YHvKCPVoNhsYgSlq-43" value="YES" style="edgeStyle=orthogonalEdgeStyle;shape=connector;curved=1;rounded=0;orthogonalLoop=1;jettySize=auto;html=1;exitX=1;exitY=0.5;exitDx=0;exitDy=0;labelBackgroundColor=default;strokeColor=default;fontFamily=Helvetica;fontSize=11;fontColor=default;endArrow=classic;" edge="1" parent="1" source="hCo_YHvKCPVoNhsYgSlq-38" target="hCo_YHvKCPVoNhsYgSlq-42">
          <mxGeometry x="-0.619" y="-10" relative="1" as="geometry">
            <mxPoint as="offset" />
          </mxGeometry>
        </mxCell>
        <mxCell id="hCo_YHvKCPVoNhsYgSlq-38" value="clients changed?" style="rhombus;whiteSpace=wrap;html=1;fontFamily=Helvetica;fontSize=11;fillColor=#fff2cc;strokeColor=#d6b656;" vertex="1" parent="1">
          <mxGeometry x="-2460" y="730" width="80" height="80" as="geometry" />
        </mxCell>
        <mxCell id="hCo_YHvKCPVoNhsYgSlq-44" style="edgeStyle=orthogonalEdgeStyle;shape=connector;curved=1;rounded=0;orthogonalLoop=1;jettySize=auto;html=1;exitX=0.5;exitY=1;exitDx=0;exitDy=0;labelBackgroundColor=default;strokeColor=default;fontFamily=Helvetica;fontSize=11;fontColor=default;endArrow=classic;" edge="1" parent="1" source="hCo_YHvKCPVoNhsYgSlq-40" target="hCo_YHvKCPVoNhsYgSlq-35">
          <mxGeometry relative="1" as="geometry" />
        </mxCell>
        <mxCell id="hCo_YHvKCPVoNhsYgSlq-40" value="do_write(&quot;ping ok&quot;)" style="rounded=0;whiteSpace=wrap;html=1;fillColor=#fff2cc;strokeColor=#d6b656;" vertex="1" parent="1">
          <mxGeometry x="-2560" y="840" width="120" height="30" as="geometry" />
        </mxCell>
        <mxCell id="hCo_YHvKCPVoNhsYgSlq-45" style="edgeStyle=orthogonalEdgeStyle;shape=connector;curved=1;rounded=0;orthogonalLoop=1;jettySize=auto;html=1;exitX=0.5;exitY=1;exitDx=0;exitDy=0;labelBackgroundColor=default;strokeColor=default;fontFamily=Helvetica;fontSize=11;fontColor=default;endArrow=classic;" edge="1" parent="1" source="hCo_YHvKCPVoNhsYgSlq-42" target="hCo_YHvKCPVoNhsYgSlq-35">
          <mxGeometry relative="1" as="geometry" />
        </mxCell>
        <mxCell id="hCo_YHvKCPVoNhsYgSlq-42" value="do_write(&quot;ping client_list_changed&lt;span style=&quot;background-color: initial;&quot;&gt;&quot;)&lt;/span&gt;" style="rounded=0;whiteSpace=wrap;html=1;fillColor=#fff2cc;strokeColor=#d6b656;" vertex="1" parent="1">
          <mxGeometry x="-2400" y="840" width="120" height="30" as="geometry" />
        </mxCell>
        <mxCell id="hCo_YHvKCPVoNhsYgSlq-48" style="edgeStyle=orthogonalEdgeStyle;shape=connector;curved=1;rounded=0;orthogonalLoop=1;jettySize=auto;html=1;exitX=0.5;exitY=1;exitDx=0;exitDy=0;entryX=0.5;entryY=0;entryDx=0;entryDy=0;labelBackgroundColor=default;strokeColor=default;fontFamily=Helvetica;fontSize=11;fontColor=default;endArrow=classic;" edge="1" parent="1" source="hCo_YHvKCPVoNhsYgSlq-46" target="hCo_YHvKCPVoNhsYgSlq-35">
          <mxGeometry relative="1" as="geometry" />
        </mxCell>
        <mxCell id="hCo_YHvKCPVoNhsYgSlq-46" value="do_write(&quot;clients &amp;lt;list&amp;gt;&lt;span style=&quot;background-color: initial;&quot;&gt;&quot;)&lt;/span&gt;" style="rounded=0;whiteSpace=wrap;html=1;fillColor=#fff2cc;strokeColor=#d6b656;" vertex="1" parent="1">
          <mxGeometry x="-2250" y="840" width="160" height="30" as="geometry" />
        </mxCell>
        <mxCell id="hCo_YHvKCPVoNhsYgSlq-53" style="edgeStyle=orthogonalEdgeStyle;shape=connector;curved=1;rounded=0;orthogonalLoop=1;jettySize=auto;html=1;labelBackgroundColor=default;strokeColor=default;fontFamily=Helvetica;fontSize=11;fontColor=default;endArrow=classic;" edge="1" parent="1" source="hCo_YHvKCPVoNhsYgSlq-49" target="hCo_YHvKCPVoNhsYgSlq-51">
          <mxGeometry relative="1" as="geometry" />
        </mxCell>
        <mxCell id="hCo_YHvKCPVoNhsYgSlq-57" style="edgeStyle=orthogonalEdgeStyle;shape=connector;curved=1;rounded=0;orthogonalLoop=1;jettySize=auto;html=1;exitX=1;exitY=0.5;exitDx=0;exitDy=0;labelBackgroundColor=default;strokeColor=default;fontFamily=Helvetica;fontSize=11;fontColor=default;endArrow=classic;" edge="1" parent="1" source="hCo_YHvKCPVoNhsYgSlq-51" target="hCo_YHvKCPVoNhsYgSlq-56">
          <mxGeometry relative="1" as="geometry" />
        </mxCell>
        <mxCell id="hCo_YHvKCPVoNhsYgSlq-49" value="on_write" style="rounded=0;whiteSpace=wrap;html=1;fillColor=#fff2cc;strokeColor=#d6b656;" vertex="1" parent="1">
          <mxGeometry x="-1800" y="510" width="160" height="30" as="geometry" />
        </mxCell>
        <mxCell id="hCo_YHvKCPVoNhsYgSlq-54" style="edgeStyle=orthogonalEdgeStyle;shape=connector;curved=1;rounded=0;orthogonalLoop=1;jettySize=auto;html=1;labelBackgroundColor=default;strokeColor=default;fontFamily=Helvetica;fontSize=11;fontColor=default;endArrow=classic;" edge="1" parent="1" source="hCo_YHvKCPVoNhsYgSlq-51" target="hCo_YHvKCPVoNhsYgSlq-52">
          <mxGeometry relative="1" as="geometry" />
        </mxCell>
        <mxCell id="hCo_YHvKCPVoNhsYgSlq-51" value="do_read" style="rounded=0;whiteSpace=wrap;html=1;fillColor=#fff2cc;strokeColor=#d6b656;" vertex="1" parent="1">
          <mxGeometry x="-1800" y="665" width="160" height="30" as="geometry" />
        </mxCell>
        <mxCell id="hCo_YHvKCPVoNhsYgSlq-55" style="edgeStyle=orthogonalEdgeStyle;shape=connector;curved=1;rounded=0;orthogonalLoop=1;jettySize=auto;html=1;entryX=1;entryY=0.5;entryDx=0;entryDy=0;labelBackgroundColor=default;strokeColor=default;fontFamily=Helvetica;fontSize=11;fontColor=default;endArrow=classic;exitX=0.5;exitY=1;exitDx=0;exitDy=0;" edge="1" parent="1" source="hCo_YHvKCPVoNhsYgSlq-52" target="hCo_YHvKCPVoNhsYgSlq-14">
          <mxGeometry relative="1" as="geometry" />
        </mxCell>
        <mxCell id="hCo_YHvKCPVoNhsYgSlq-52" value="&lt;b&gt;async_read&lt;/b&gt;(sock_, ...)&lt;br&gt;=&amp;gt;&amp;nbsp;on_read" style="rounded=0;whiteSpace=wrap;html=1;fillColor=#fff2cc;strokeColor=#d6b656;" vertex="1" parent="1">
          <mxGeometry x="-1800" y="930" width="160" height="50" as="geometry" />
        </mxCell>
        <mxCell id="hCo_YHvKCPVoNhsYgSlq-59" style="edgeStyle=orthogonalEdgeStyle;shape=connector;curved=1;rounded=0;orthogonalLoop=1;jettySize=auto;html=1;labelBackgroundColor=default;strokeColor=default;fontFamily=Helvetica;fontSize=11;fontColor=default;endArrow=classic;" edge="1" parent="1" source="hCo_YHvKCPVoNhsYgSlq-56" target="hCo_YHvKCPVoNhsYgSlq-58">
          <mxGeometry relative="1" as="geometry" />
        </mxCell>
        <mxCell id="hCo_YHvKCPVoNhsYgSlq-56" value="post_check_ping" style="rounded=0;whiteSpace=wrap;html=1;fillColor=#fff2cc;strokeColor=#d6b656;" vertex="1" parent="1">
          <mxGeometry x="-1630" y="745" width="160" height="30" as="geometry" />
        </mxCell>
        <mxCell id="hCo_YHvKCPVoNhsYgSlq-65" style="edgeStyle=orthogonalEdgeStyle;shape=connector;curved=1;rounded=0;orthogonalLoop=1;jettySize=auto;html=1;labelBackgroundColor=default;strokeColor=default;fontFamily=Helvetica;fontSize=11;fontColor=default;endArrow=classic;dashed=1;entryX=0;entryY=0.5;entryDx=0;entryDy=0;" edge="1" parent="1" source="hCo_YHvKCPVoNhsYgSlq-58" target="hCo_YHvKCPVoNhsYgSlq-60">
          <mxGeometry relative="1" as="geometry" />
        </mxCell>
        <mxCell id="hCo_YHvKCPVoNhsYgSlq-58" value="&lt;div&gt;timer_.expires_from_now(5s);&lt;/div&gt;&lt;div&gt;&lt;span style=&quot;background-color: initial;&quot;&gt;timer_.&lt;b&gt;async_wait&lt;/b&gt;();&lt;/span&gt;&lt;/div&gt;&lt;div&gt;&lt;span style=&quot;background-color: initial;&quot;&gt;=&amp;gt;&amp;nbsp;&lt;/span&gt;on_check_ping&lt;/div&gt;" style="rounded=0;whiteSpace=wrap;html=1;fillColor=#fff2cc;strokeColor=#d6b656;" vertex="1" parent="1">
          <mxGeometry x="-1640" y="830" width="180" height="50" as="geometry" />
        </mxCell>
        <mxCell id="hCo_YHvKCPVoNhsYgSlq-64" style="edgeStyle=orthogonalEdgeStyle;shape=connector;curved=1;rounded=0;orthogonalLoop=1;jettySize=auto;html=1;labelBackgroundColor=default;strokeColor=default;fontFamily=Helvetica;fontSize=11;fontColor=default;endArrow=classic;" edge="1" parent="1" source="hCo_YHvKCPVoNhsYgSlq-60" target="hCo_YHvKCPVoNhsYgSlq-62">
          <mxGeometry relative="1" as="geometry" />
        </mxCell>
        <mxCell id="hCo_YHvKCPVoNhsYgSlq-60" value="on_check_ping" style="rounded=0;whiteSpace=wrap;html=1;fillColor=#fff2cc;strokeColor=#d6b656;" vertex="1" parent="1">
          <mxGeometry x="-1400" y="510" width="160" height="30" as="geometry" />
        </mxCell>
        <mxCell id="hCo_YHvKCPVoNhsYgSlq-62" value="update&amp;nbsp;last_ping" style="rounded=0;whiteSpace=wrap;html=1;fillColor=#fff2cc;strokeColor=#d6b656;" vertex="1" parent="1">
          <mxGeometry x="-1400" y="585" width="160" height="30" as="geometry" />
        </mxCell>
        <mxCell id="hCo_YHvKCPVoNhsYgSlq-69" style="edgeStyle=orthogonalEdgeStyle;shape=connector;curved=1;rounded=0;orthogonalLoop=1;jettySize=auto;html=1;labelBackgroundColor=default;strokeColor=default;fontFamily=Helvetica;fontSize=11;fontColor=default;endArrow=classic;" edge="1" parent="1" source="hCo_YHvKCPVoNhsYgSlq-67" target="hCo_YHvKCPVoNhsYgSlq-68">
          <mxGeometry relative="1" as="geometry" />
        </mxCell>
        <mxCell id="hCo_YHvKCPVoNhsYgSlq-67" value="Async Server Stop" style="rounded=1;whiteSpace=wrap;html=1;arcSize=50;fillColor=#fff2cc;strokeColor=#d6b656;" vertex="1" parent="1">
          <mxGeometry x="-2690" y="280" width="100" height="40" as="geometry" />
        </mxCell>
        <mxCell id="hCo_YHvKCPVoNhsYgSlq-68" value="started_ = false&lt;br&gt;sock_.close()&lt;br&gt;clients.erase(it)&lt;br&gt;update_clients_changed()" style="rounded=0;whiteSpace=wrap;html=1;fillColor=#fff2cc;strokeColor=#d6b656;" vertex="1" parent="1">
          <mxGeometry x="-2720" y="345" width="160" height="85" as="geometry" />
        </mxCell>
        <mxCell id="hCo_YHvKCPVoNhsYgSlq-72" value="stop" style="rounded=1;whiteSpace=wrap;html=1;arcSize=50;fillColor=#f8cecc;strokeColor=#b85450;" vertex="1" parent="1">
          <mxGeometry x="-1280" y="530" width="40" height="10" as="geometry" />
        </mxCell>
        <mxCell id="hCo_YHvKCPVoNhsYgSlq-73" value="stop" style="rounded=1;whiteSpace=wrap;html=1;arcSize=50;fillColor=#f8cecc;strokeColor=#b85450;" vertex="1" parent="1">
          <mxGeometry x="-2380" y="530" width="40" height="10" as="geometry" />
        </mxCell>
        <mxCell id="hCo_YHvKCPVoNhsYgSlq-75" style="edgeStyle=orthogonalEdgeStyle;shape=connector;curved=1;rounded=0;orthogonalLoop=1;jettySize=auto;html=1;labelBackgroundColor=default;strokeColor=default;fontFamily=Helvetica;fontSize=11;fontColor=default;endArrow=classic;" edge="1" parent="1" source="hCo_YHvKCPVoNhsYgSlq-74" target="hCo_YHvKCPVoNhsYgSlq-67">
          <mxGeometry relative="1" as="geometry" />
        </mxCell>
        <mxCell id="hCo_YHvKCPVoNhsYgSlq-74" value="stop" style="rounded=1;whiteSpace=wrap;html=1;arcSize=50;fillColor=#f8cecc;strokeColor=#b85450;" vertex="1" parent="1">
          <mxGeometry x="-2660" y="230" width="40" height="10" as="geometry" />
        </mxCell>
        <mxCell id="hCo_YHvKCPVoNhsYgSlq-77" style="edgeStyle=orthogonalEdgeStyle;shape=connector;curved=1;rounded=0;orthogonalLoop=1;jettySize=auto;html=1;labelBackgroundColor=default;strokeColor=default;fontFamily=Helvetica;fontSize=11;fontColor=default;endArrow=classic;" edge="1" source="hCo_YHvKCPVoNhsYgSlq-78" target="hCo_YHvKCPVoNhsYgSlq-79" parent="1">
          <mxGeometry relative="1" as="geometry" />
        </mxCell>
        <mxCell id="hCo_YHvKCPVoNhsYgSlq-78" value="Async Client Stop" style="rounded=1;whiteSpace=wrap;html=1;arcSize=50;fillColor=#fff2cc;strokeColor=#d6b656;" vertex="1" parent="1">
          <mxGeometry x="-730" y="305" width="100" height="40" as="geometry" />
        </mxCell>
        <mxCell id="hCo_YHvKCPVoNhsYgSlq-79" value="&lt;div&gt;started_ = false;&lt;/div&gt;&lt;div&gt;&lt;span style=&quot;background-color: initial;&quot;&gt;sock_.close();&lt;/span&gt;&lt;/div&gt;" style="rounded=0;whiteSpace=wrap;html=1;fillColor=#fff2cc;strokeColor=#d6b656;" vertex="1" parent="1">
          <mxGeometry x="-740" y="375" width="120" height="40" as="geometry" />
        </mxCell>
        <mxCell id="hCo_YHvKCPVoNhsYgSlq-80" style="edgeStyle=orthogonalEdgeStyle;shape=connector;curved=1;rounded=0;orthogonalLoop=1;jettySize=auto;html=1;labelBackgroundColor=default;strokeColor=default;fontFamily=Helvetica;fontSize=11;fontColor=default;endArrow=classic;" edge="1" source="hCo_YHvKCPVoNhsYgSlq-81" target="hCo_YHvKCPVoNhsYgSlq-78" parent="1">
          <mxGeometry relative="1" as="geometry" />
        </mxCell>
        <mxCell id="hCo_YHvKCPVoNhsYgSlq-81" value="stop" style="rounded=1;whiteSpace=wrap;html=1;arcSize=50;fillColor=#f8cecc;strokeColor=#b85450;" vertex="1" parent="1">
          <mxGeometry x="-700" y="265" width="40" height="10" as="geometry" />
        </mxCell>
        <mxCell id="hCo_YHvKCPVoNhsYgSlq-82" value="stop" style="rounded=1;whiteSpace=wrap;html=1;arcSize=50;fillColor=#f8cecc;strokeColor=#b85450;" vertex="1" parent="1">
          <mxGeometry x="-280" y="510" width="40" height="10" as="geometry" />
        </mxCell>
        <mxCell id="hCo_YHvKCPVoNhsYgSlq-83" value="stop" style="rounded=1;whiteSpace=wrap;html=1;arcSize=50;fillColor=#f8cecc;strokeColor=#b85450;" vertex="1" parent="1">
          <mxGeometry x="20" y="510" width="40" height="10" as="geometry" />
        </mxCell>
        <mxCell id="hCo_YHvKCPVoNhsYgSlq-87" value="" style="edgeStyle=orthogonalEdgeStyle;shape=connector;curved=1;rounded=0;orthogonalLoop=1;jettySize=auto;html=1;labelBackgroundColor=default;strokeColor=default;fontFamily=Helvetica;fontSize=11;fontColor=default;endArrow=classic;" edge="1" parent="1" source="hCo_YHvKCPVoNhsYgSlq-8" target="hCo_YHvKCPVoNhsYgSlq-86">
          <mxGeometry relative="1" as="geometry">
            <mxPoint x="-1950" y="685" as="sourcePoint" />
            <mxPoint x="-1320" y="1170" as="targetPoint" />
          </mxGeometry>
        </mxCell>
        <mxCell id="hCo_YHvKCPVoNhsYgSlq-86" value="ip::tcp::&lt;b&gt;acceptor&lt;/b&gt;&lt;br&gt;acceptor.&lt;b&gt;async_accept&lt;/b&gt;()&lt;br&gt;=&amp;gt;&amp;nbsp;handle_accept&lt;span style=&quot;background-color: initial;&quot;&gt;()&lt;/span&gt;" style="rounded=0;whiteSpace=wrap;html=1;fillColor=#fff2cc;strokeColor=#d6b656;" vertex="1" parent="1">
          <mxGeometry x="-2030" y="930" width="160" height="50" as="geometry" />
        </mxCell>
        <mxCell id="hCo_YHvKCPVoNhsYgSlq-89" value="upd_clients" style="rounded=1;whiteSpace=wrap;html=1;arcSize=50;fillColor=#f8cecc;strokeColor=#b85450;" vertex="1" parent="1">
          <mxGeometry x="-2685" y="710" width="70" height="10" as="geometry" />
        </mxCell>
        <mxCell id="hCo_YHvKCPVoNhsYgSlq-93" style="edgeStyle=orthogonalEdgeStyle;shape=connector;curved=1;rounded=0;orthogonalLoop=1;jettySize=auto;html=1;labelBackgroundColor=default;strokeColor=default;fontFamily=Helvetica;fontSize=11;fontColor=default;endArrow=classic;" edge="1" parent="1" source="hCo_YHvKCPVoNhsYgSlq-91" target="hCo_YHvKCPVoNhsYgSlq-92">
          <mxGeometry relative="1" as="geometry" />
        </mxCell>
        <mxCell id="hCo_YHvKCPVoNhsYgSlq-91" value="upd_clients" style="rounded=1;whiteSpace=wrap;html=1;arcSize=50;fillColor=#f8cecc;strokeColor=#b85450;" vertex="1" parent="1">
          <mxGeometry x="-2480" y="230" width="80" height="10" as="geometry" />
        </mxCell>
        <mxCell id="hCo_YHvKCPVoNhsYgSlq-92" value="update_clients_changed()" style="rounded=0;whiteSpace=wrap;html=1;fillColor=#fff2cc;strokeColor=#d6b656;" vertex="1" parent="1">
          <mxGeometry x="-2520" y="280" width="160" height="40" as="geometry" />
        </mxCell>
        <mxCell id="hCo_YHvKCPVoNhsYgSlq-94" value="upd_clients" style="rounded=1;whiteSpace=wrap;html=1;arcSize=50;fillColor=#f8cecc;strokeColor=#b85450;" vertex="1" parent="1">
          <mxGeometry x="-2630" y="420" width="70" height="10" as="geometry" />
        </mxCell>
      </root>
    </mxGraphModel>
  </diagram>
  <diagram id="sBvB55U570EsPWSa5m55" name="Page-3">
    <mxGraphModel dx="6385" dy="2613" grid="1" gridSize="10" guides="1" tooltips="1" connect="1" arrows="1" fold="1" page="0" pageScale="1" pageWidth="850" pageHeight="1100" math="0" shadow="0">
      <root>
        <mxCell id="0" />
        <mxCell id="1" parent="0" />
        <mxCell id="9o_0vOJ_n6I8ADiCMsV1-1" value="boost::asio::io_service" style="swimlane;fontStyle=1;align=center;verticalAlign=top;childLayout=stackLayout;horizontal=1;startSize=26;horizontalStack=0;resizeParent=1;resizeParentMax=0;resizeLast=0;collapsible=1;marginBottom=0;whiteSpace=wrap;html=1;fontFamily=Helvetica;fontSize=11;fillColor=#dae8fc;strokeColor=#6c8ebf;" vertex="1" parent="1">
          <mxGeometry x="-920" y="520" width="160" height="52" as="geometry">
            <mxRectangle x="340" y="490" width="100" height="30" as="alternateBounds" />
          </mxGeometry>
        </mxCell>
        <mxCell id="9o_0vOJ_n6I8ADiCMsV1-4" value="...." style="text;strokeColor=#6c8ebf;fillColor=#dae8fc;align=left;verticalAlign=top;spacingLeft=4;spacingRight=4;overflow=hidden;rotatable=0;points=[[0,0.5],[1,0.5]];portConstraint=eastwest;whiteSpace=wrap;html=1;fontSize=11;fontFamily=Helvetica;" vertex="1" parent="9o_0vOJ_n6I8ADiCMsV1-1">
          <mxGeometry y="26" width="160" height="26" as="geometry" />
        </mxCell>
        <mxCell id="9o_0vOJ_n6I8ADiCMsV1-5" value="boost::asio::buffer" style="swimlane;fontStyle=1;align=center;verticalAlign=top;childLayout=stackLayout;horizontal=1;startSize=26;horizontalStack=0;resizeParent=1;resizeParentMax=0;resizeLast=0;collapsible=1;marginBottom=0;whiteSpace=wrap;html=1;fontFamily=Helvetica;fontSize=11;fillColor=#dae8fc;strokeColor=#6c8ebf;" vertex="1" parent="1">
          <mxGeometry x="-720" y="520" width="160" height="52" as="geometry">
            <mxRectangle x="340" y="490" width="100" height="30" as="alternateBounds" />
          </mxGeometry>
        </mxCell>
        <mxCell id="9o_0vOJ_n6I8ADiCMsV1-6" value="...." style="text;strokeColor=#6c8ebf;fillColor=#dae8fc;align=left;verticalAlign=top;spacingLeft=4;spacingRight=4;overflow=hidden;rotatable=0;points=[[0,0.5],[1,0.5]];portConstraint=eastwest;whiteSpace=wrap;html=1;fontSize=11;fontFamily=Helvetica;" vertex="1" parent="9o_0vOJ_n6I8ADiCMsV1-5">
          <mxGeometry y="26" width="160" height="26" as="geometry" />
        </mxCell>
        <mxCell id="9o_0vOJ_n6I8ADiCMsV1-7" value="boost::asio::&amp;nbsp; (free methods)" style="swimlane;fontStyle=1;align=center;verticalAlign=top;childLayout=stackLayout;horizontal=1;startSize=26;horizontalStack=0;resizeParent=1;resizeParentMax=0;resizeLast=0;collapsible=1;marginBottom=0;whiteSpace=wrap;html=1;fontFamily=Helvetica;fontSize=11;fillColor=#dae8fc;strokeColor=#6c8ebf;" vertex="1" parent="1">
          <mxGeometry x="-510" y="520" width="320" height="416" as="geometry">
            <mxRectangle x="340" y="490" width="100" height="30" as="alternateBounds" />
          </mxGeometry>
        </mxCell>
        <mxCell id="9o_0vOJ_n6I8ADiCMsV1-131" value="read/write" style="text;strokeColor=#6c8ebf;fillColor=#dae8fc;align=center;verticalAlign=top;spacingLeft=4;spacingRight=4;overflow=hidden;rotatable=0;points=[[0,0.5],[1,0.5]];portConstraint=eastwest;whiteSpace=wrap;html=1;fontSize=11;fontFamily=Helvetica;fontStyle=1" vertex="1" parent="9o_0vOJ_n6I8ADiCMsV1-7">
          <mxGeometry y="26" width="320" height="26" as="geometry" />
        </mxCell>
        <mxCell id="9o_0vOJ_n6I8ADiCMsV1-15" value="async_read(stream, buffer [, completion] ,handler)" style="text;strokeColor=#6c8ebf;fillColor=#dae8fc;align=left;verticalAlign=top;spacingLeft=4;spacingRight=4;overflow=hidden;rotatable=0;points=[[0,0.5],[1,0.5]];portConstraint=eastwest;whiteSpace=wrap;html=1;fontSize=11;fontFamily=Helvetica;fontStyle=4" vertex="1" parent="9o_0vOJ_n6I8ADiCMsV1-7">
          <mxGeometry y="52" width="320" height="26" as="geometry" />
        </mxCell>
        <mxCell id="9o_0vOJ_n6I8ADiCMsV1-14" value="async_write(stream, buffer [, completion], handler)" style="text;strokeColor=#6c8ebf;fillColor=#dae8fc;align=left;verticalAlign=top;spacingLeft=4;spacingRight=4;overflow=hidden;rotatable=0;points=[[0,0.5],[1,0.5]];portConstraint=eastwest;whiteSpace=wrap;html=1;fontSize=11;fontFamily=Helvetica;fontStyle=4" vertex="1" parent="9o_0vOJ_n6I8ADiCMsV1-7">
          <mxGeometry y="78" width="320" height="26" as="geometry" />
        </mxCell>
        <mxCell id="9o_0vOJ_n6I8ADiCMsV1-13" value="read(stream, buffer [, completion])" style="text;strokeColor=#6c8ebf;fillColor=#dae8fc;align=left;verticalAlign=top;spacingLeft=4;spacingRight=4;overflow=hidden;rotatable=0;points=[[0,0.5],[1,0.5]];portConstraint=eastwest;whiteSpace=wrap;html=1;fontSize=11;fontFamily=Helvetica;fontStyle=4" vertex="1" parent="9o_0vOJ_n6I8ADiCMsV1-7">
          <mxGeometry y="104" width="320" height="26" as="geometry" />
        </mxCell>
        <mxCell id="9o_0vOJ_n6I8ADiCMsV1-130" value="write(stream, buffer [, completion])" style="text;strokeColor=#6c8ebf;fillColor=#dae8fc;align=left;verticalAlign=top;spacingLeft=4;spacingRight=4;overflow=hidden;rotatable=0;points=[[0,0.5],[1,0.5]];portConstraint=eastwest;whiteSpace=wrap;html=1;fontSize=11;fontFamily=Helvetica;fontStyle=4" vertex="1" parent="9o_0vOJ_n6I8ADiCMsV1-7">
          <mxGeometry y="130" width="320" height="26" as="geometry" />
        </mxCell>
        <mxCell id="9o_0vOJ_n6I8ADiCMsV1-132" value="*_until methods" style="text;strokeColor=#6c8ebf;fillColor=#dae8fc;align=center;verticalAlign=top;spacingLeft=4;spacingRight=4;overflow=hidden;rotatable=0;points=[[0,0.5],[1,0.5]];portConstraint=eastwest;whiteSpace=wrap;html=1;fontSize=11;fontFamily=Helvetica;fontStyle=1" vertex="1" parent="9o_0vOJ_n6I8ADiCMsV1-7">
          <mxGeometry y="156" width="320" height="26" as="geometry" />
        </mxCell>
        <mxCell id="9o_0vOJ_n6I8ADiCMsV1-133" value="async_read_until(stream, stream_buffer, delim, handler)" style="text;strokeColor=#6c8ebf;fillColor=#dae8fc;align=left;verticalAlign=top;spacingLeft=4;spacingRight=4;overflow=hidden;rotatable=0;points=[[0,0.5],[1,0.5]];portConstraint=eastwest;whiteSpace=wrap;html=1;fontSize=11;fontFamily=Helvetica;fontStyle=4" vertex="1" parent="9o_0vOJ_n6I8ADiCMsV1-7">
          <mxGeometry y="182" width="320" height="26" as="geometry" />
        </mxCell>
        <mxCell id="9o_0vOJ_n6I8ADiCMsV1-134" value="async_read_until(stream, stream_buffer, completion, handler)" style="text;strokeColor=#6c8ebf;fillColor=#dae8fc;align=left;verticalAlign=top;spacingLeft=4;spacingRight=4;overflow=hidden;rotatable=0;points=[[0,0.5],[1,0.5]];portConstraint=eastwest;whiteSpace=wrap;html=1;fontSize=11;fontFamily=Helvetica;fontStyle=4" vertex="1" parent="9o_0vOJ_n6I8ADiCMsV1-7">
          <mxGeometry y="208" width="320" height="26" as="geometry" />
        </mxCell>
        <mxCell id="9o_0vOJ_n6I8ADiCMsV1-135" value="read_until(stream, stream_buffer, delim)" style="text;strokeColor=#6c8ebf;fillColor=#dae8fc;align=left;verticalAlign=top;spacingLeft=4;spacingRight=4;overflow=hidden;rotatable=0;points=[[0,0.5],[1,0.5]];portConstraint=eastwest;whiteSpace=wrap;html=1;fontSize=11;fontFamily=Helvetica;fontStyle=4" vertex="1" parent="9o_0vOJ_n6I8ADiCMsV1-7">
          <mxGeometry y="234" width="320" height="26" as="geometry" />
        </mxCell>
        <mxCell id="9o_0vOJ_n6I8ADiCMsV1-136" value="read_until(stream, stream_buffer, completion)" style="text;strokeColor=#6c8ebf;fillColor=#dae8fc;align=left;verticalAlign=top;spacingLeft=4;spacingRight=4;overflow=hidden;rotatable=0;points=[[0,0.5],[1,0.5]];portConstraint=eastwest;whiteSpace=wrap;html=1;fontSize=11;fontFamily=Helvetica;fontStyle=4" vertex="1" parent="9o_0vOJ_n6I8ADiCMsV1-7">
          <mxGeometry y="260" width="320" height="26" as="geometry" />
        </mxCell>
        <mxCell id="9o_0vOJ_n6I8ADiCMsV1-137" value="*_at methods (not for sockets - only for random access)" style="text;strokeColor=#6c8ebf;fillColor=#dae8fc;align=center;verticalAlign=top;spacingLeft=4;spacingRight=4;overflow=hidden;rotatable=0;points=[[0,0.5],[1,0.5]];portConstraint=eastwest;whiteSpace=wrap;html=1;fontSize=11;fontFamily=Helvetica;fontStyle=1" vertex="1" parent="9o_0vOJ_n6I8ADiCMsV1-7">
          <mxGeometry y="286" width="320" height="26" as="geometry" />
        </mxCell>
        <mxCell id="9o_0vOJ_n6I8ADiCMsV1-138" value="async_read_at(stream, offset, buffer [, completion], handler)" style="text;strokeColor=#6c8ebf;fillColor=#dae8fc;align=left;verticalAlign=top;spacingLeft=4;spacingRight=4;overflow=hidden;rotatable=0;points=[[0,0.5],[1,0.5]];portConstraint=eastwest;whiteSpace=wrap;html=1;fontSize=11;fontFamily=Helvetica;fontStyle=4" vertex="1" parent="9o_0vOJ_n6I8ADiCMsV1-7">
          <mxGeometry y="312" width="320" height="26" as="geometry" />
        </mxCell>
        <mxCell id="9o_0vOJ_n6I8ADiCMsV1-139" value="async_write_at(stream, offset, buffer [, completion], handler)" style="text;strokeColor=#6c8ebf;fillColor=#dae8fc;align=left;verticalAlign=top;spacingLeft=4;spacingRight=4;overflow=hidden;rotatable=0;points=[[0,0.5],[1,0.5]];portConstraint=eastwest;whiteSpace=wrap;html=1;fontSize=11;fontFamily=Helvetica;fontStyle=4" vertex="1" parent="9o_0vOJ_n6I8ADiCMsV1-7">
          <mxGeometry y="338" width="320" height="26" as="geometry" />
        </mxCell>
        <mxCell id="9o_0vOJ_n6I8ADiCMsV1-140" value="read_at(stream, offset, buffer [, completion])" style="text;strokeColor=#6c8ebf;fillColor=#dae8fc;align=left;verticalAlign=top;spacingLeft=4;spacingRight=4;overflow=hidden;rotatable=0;points=[[0,0.5],[1,0.5]];portConstraint=eastwest;whiteSpace=wrap;html=1;fontSize=11;fontFamily=Helvetica;fontStyle=4" vertex="1" parent="9o_0vOJ_n6I8ADiCMsV1-7">
          <mxGeometry y="364" width="320" height="26" as="geometry" />
        </mxCell>
        <mxCell id="9o_0vOJ_n6I8ADiCMsV1-141" value="write_at(stream, offset, buffer [, completion])" style="text;strokeColor=#6c8ebf;fillColor=#dae8fc;align=left;verticalAlign=top;spacingLeft=4;spacingRight=4;overflow=hidden;rotatable=0;points=[[0,0.5],[1,0.5]];portConstraint=eastwest;whiteSpace=wrap;html=1;fontSize=11;fontFamily=Helvetica;fontStyle=4" vertex="1" parent="9o_0vOJ_n6I8ADiCMsV1-7">
          <mxGeometry y="390" width="320" height="26" as="geometry" />
        </mxCell>
        <mxCell id="9o_0vOJ_n6I8ADiCMsV1-16" value="boost::asio::ip::address" style="swimlane;fontStyle=1;align=center;verticalAlign=top;childLayout=stackLayout;horizontal=1;startSize=26;horizontalStack=0;resizeParent=1;resizeParentMax=0;resizeLast=0;collapsible=1;marginBottom=0;whiteSpace=wrap;html=1;fontFamily=Helvetica;fontSize=11;fillColor=#dae8fc;strokeColor=#6c8ebf;" vertex="1" parent="1">
          <mxGeometry x="-140" y="520" width="180" height="104" as="geometry">
            <mxRectangle x="340" y="490" width="100" height="30" as="alternateBounds" />
          </mxGeometry>
        </mxCell>
        <mxCell id="9o_0vOJ_n6I8ADiCMsV1-41" value="&lt;u&gt;from_string(str)&lt;/u&gt;" style="text;strokeColor=#6c8ebf;fillColor=#dae8fc;align=left;verticalAlign=top;spacingLeft=4;spacingRight=4;overflow=hidden;rotatable=0;points=[[0,0.5],[1,0.5]];portConstraint=eastwest;whiteSpace=wrap;html=1;fontSize=11;fontFamily=Helvetica;" vertex="1" parent="9o_0vOJ_n6I8ADiCMsV1-16">
          <mxGeometry y="26" width="180" height="26" as="geometry" />
        </mxCell>
        <mxCell id="9o_0vOJ_n6I8ADiCMsV1-48" value="&lt;u&gt;to_string(str)&lt;/u&gt;" style="text;strokeColor=#6c8ebf;fillColor=#dae8fc;align=left;verticalAlign=top;spacingLeft=4;spacingRight=4;overflow=hidden;rotatable=0;points=[[0,0.5],[1,0.5]];portConstraint=eastwest;whiteSpace=wrap;html=1;fontSize=11;fontFamily=Helvetica;" vertex="1" parent="9o_0vOJ_n6I8ADiCMsV1-16">
          <mxGeometry y="52" width="180" height="26" as="geometry" />
        </mxCell>
        <mxCell id="9o_0vOJ_n6I8ADiCMsV1-53" value="host_name()" style="text;strokeColor=#6c8ebf;fillColor=#dae8fc;align=left;verticalAlign=top;spacingLeft=4;spacingRight=4;overflow=hidden;rotatable=0;points=[[0,0.5],[1,0.5]];portConstraint=eastwest;whiteSpace=wrap;html=1;fontSize=11;fontFamily=Helvetica;" vertex="1" parent="9o_0vOJ_n6I8ADiCMsV1-16">
          <mxGeometry y="78" width="180" height="26" as="geometry" />
        </mxCell>
        <mxCell id="9o_0vOJ_n6I8ADiCMsV1-18" value="boost::asio::ip::endpoint" style="swimlane;fontStyle=1;align=center;verticalAlign=top;childLayout=stackLayout;horizontal=1;startSize=26;horizontalStack=0;resizeParent=1;resizeParentMax=0;resizeLast=0;collapsible=1;marginBottom=0;whiteSpace=wrap;html=1;fontFamily=Helvetica;fontSize=11;fillColor=#dae8fc;strokeColor=#6c8ebf;" vertex="1" parent="1">
          <mxGeometry x="-140" y="832" width="160" height="104" as="geometry">
            <mxRectangle x="340" y="490" width="100" height="30" as="alternateBounds" />
          </mxGeometry>
        </mxCell>
        <mxCell id="9o_0vOJ_n6I8ADiCMsV1-55" value="ctor( )" style="text;strokeColor=#6c8ebf;fillColor=#dae8fc;align=left;verticalAlign=top;spacingLeft=4;spacingRight=4;overflow=hidden;rotatable=0;points=[[0,0.5],[1,0.5]];portConstraint=eastwest;whiteSpace=wrap;html=1;fontSize=11;fontFamily=Helvetica;" vertex="1" parent="9o_0vOJ_n6I8ADiCMsV1-18">
          <mxGeometry y="26" width="160" height="26" as="geometry" />
        </mxCell>
        <mxCell id="9o_0vOJ_n6I8ADiCMsV1-19" value="ctor( addr, port )" style="text;strokeColor=#6c8ebf;fillColor=#dae8fc;align=left;verticalAlign=top;spacingLeft=4;spacingRight=4;overflow=hidden;rotatable=0;points=[[0,0.5],[1,0.5]];portConstraint=eastwest;whiteSpace=wrap;html=1;fontSize=11;fontFamily=Helvetica;" vertex="1" parent="9o_0vOJ_n6I8ADiCMsV1-18">
          <mxGeometry y="52" width="160" height="26" as="geometry" />
        </mxCell>
        <mxCell id="9o_0vOJ_n6I8ADiCMsV1-54" value="ctor( protocol, port )" style="text;strokeColor=#6c8ebf;fillColor=#dae8fc;align=left;verticalAlign=top;spacingLeft=4;spacingRight=4;overflow=hidden;rotatable=0;points=[[0,0.5],[1,0.5]];portConstraint=eastwest;whiteSpace=wrap;html=1;fontSize=11;fontFamily=Helvetica;" vertex="1" parent="9o_0vOJ_n6I8ADiCMsV1-18">
          <mxGeometry y="78" width="160" height="26" as="geometry" />
        </mxCell>
        <mxCell id="9o_0vOJ_n6I8ADiCMsV1-20" value="boost::asio::ip::&amp;lt;any&amp;gt;::socket" style="swimlane;fontStyle=1;align=center;verticalAlign=top;childLayout=stackLayout;horizontal=1;startSize=26;horizontalStack=0;resizeParent=1;resizeParentMax=0;resizeLast=0;collapsible=1;marginBottom=0;whiteSpace=wrap;html=1;fontFamily=Helvetica;fontSize=11;fillColor=#dae8fc;strokeColor=#6c8ebf;" vertex="1" parent="1">
          <mxGeometry x="-540" y="1360" width="340" height="234" as="geometry">
            <mxRectangle x="340" y="490" width="100" height="30" as="alternateBounds" />
          </mxGeometry>
        </mxCell>
        <mxCell id="9o_0vOJ_n6I8ADiCMsV1-115" value="read/write" style="text;align=center;verticalAlign=top;spacingLeft=4;spacingRight=4;overflow=hidden;rotatable=0;points=[[0,0.5],[1,0.5]];portConstraint=eastwest;whiteSpace=wrap;html=1;fontSize=11;fontFamily=Helvetica;fillColor=#dae8fc;strokeColor=#6c8ebf;fontStyle=1" vertex="1" parent="9o_0vOJ_n6I8ADiCMsV1-20">
          <mxGeometry y="26" width="340" height="26" as="geometry" />
        </mxCell>
        <mxCell id="9o_0vOJ_n6I8ADiCMsV1-96" value="[async_]receive(buffer, [flags,] handler)" style="text;strokeColor=#6c8ebf;fillColor=#dae8fc;align=left;verticalAlign=top;spacingLeft=4;spacingRight=4;overflow=hidden;rotatable=0;points=[[0,0.5],[1,0.5]];portConstraint=eastwest;whiteSpace=wrap;html=1;fontSize=11;fontFamily=Helvetica;" vertex="1" parent="9o_0vOJ_n6I8ADiCMsV1-20">
          <mxGeometry y="52" width="340" height="26" as="geometry" />
        </mxCell>
        <mxCell id="9o_0vOJ_n6I8ADiCMsV1-108" value="[async_]read_some(buffer,handler)&amp;nbsp; &lt;b&gt;TCP&lt;/b&gt;" style="text;strokeColor=#6c8ebf;fillColor=#dae8fc;align=left;verticalAlign=top;spacingLeft=4;spacingRight=4;overflow=hidden;rotatable=0;points=[[0,0.5],[1,0.5]];portConstraint=eastwest;whiteSpace=wrap;html=1;fontSize=11;fontFamily=Helvetica;" vertex="1" parent="9o_0vOJ_n6I8ADiCMsV1-20">
          <mxGeometry y="78" width="340" height="26" as="geometry" />
        </mxCell>
        <mxCell id="9o_0vOJ_n6I8ADiCMsV1-109" value="[async_]receive_from(buffer, endpoint[, flags], handler)&amp;nbsp; &lt;b&gt;UDP/ICMP&lt;/b&gt;" style="text;strokeColor=#6c8ebf;fillColor=#dae8fc;align=left;verticalAlign=top;spacingLeft=4;spacingRight=4;overflow=hidden;rotatable=0;points=[[0,0.5],[1,0.5]];portConstraint=eastwest;whiteSpace=wrap;html=1;fontSize=11;fontFamily=Helvetica;" vertex="1" parent="9o_0vOJ_n6I8ADiCMsV1-20">
          <mxGeometry y="104" width="340" height="26" as="geometry" />
        </mxCell>
        <mxCell id="9o_0vOJ_n6I8ADiCMsV1-110" value="[async_]send(buffer [, flags], handler)" style="text;strokeColor=#6c8ebf;fillColor=#dae8fc;align=left;verticalAlign=top;spacingLeft=4;spacingRight=4;overflow=hidden;rotatable=0;points=[[0,0.5],[1,0.5]];portConstraint=eastwest;whiteSpace=wrap;html=1;fontSize=11;fontFamily=Helvetica;" vertex="1" parent="9o_0vOJ_n6I8ADiCMsV1-20">
          <mxGeometry y="130" width="340" height="26" as="geometry" />
        </mxCell>
        <mxCell id="9o_0vOJ_n6I8ADiCMsV1-111" value="[async_]write_some(buffer, handler)&amp;nbsp; &lt;b&gt;TCP&lt;/b&gt;" style="text;strokeColor=#6c8ebf;fillColor=#dae8fc;align=left;verticalAlign=top;spacingLeft=4;spacingRight=4;overflow=hidden;rotatable=0;points=[[0,0.5],[1,0.5]];portConstraint=eastwest;whiteSpace=wrap;html=1;fontSize=11;fontFamily=Helvetica;" vertex="1" parent="9o_0vOJ_n6I8ADiCMsV1-20">
          <mxGeometry y="156" width="340" height="26" as="geometry" />
        </mxCell>
        <mxCell id="9o_0vOJ_n6I8ADiCMsV1-112" value="[async_]send_to(buffer, endpoint, handler)&amp;nbsp; &lt;b&gt;UDP/ICMP&lt;/b&gt;" style="text;strokeColor=#6c8ebf;fillColor=#dae8fc;align=left;verticalAlign=top;spacingLeft=4;spacingRight=4;overflow=hidden;rotatable=0;points=[[0,0.5],[1,0.5]];portConstraint=eastwest;whiteSpace=wrap;html=1;fontSize=11;fontFamily=Helvetica;" vertex="1" parent="9o_0vOJ_n6I8ADiCMsV1-20">
          <mxGeometry y="182" width="340" height="26" as="geometry" />
        </mxCell>
        <mxCell id="9o_0vOJ_n6I8ADiCMsV1-113" value="available()" style="text;strokeColor=#6c8ebf;fillColor=#dae8fc;align=left;verticalAlign=top;spacingLeft=4;spacingRight=4;overflow=hidden;rotatable=0;points=[[0,0.5],[1,0.5]];portConstraint=eastwest;whiteSpace=wrap;html=1;fontSize=11;fontFamily=Helvetica;" vertex="1" parent="9o_0vOJ_n6I8ADiCMsV1-20">
          <mxGeometry y="208" width="340" height="26" as="geometry" />
        </mxCell>
        <mxCell id="9o_0vOJ_n6I8ADiCMsV1-22" value="boost::asio::ip::udp" style="swimlane;fontStyle=1;align=center;verticalAlign=top;childLayout=stackLayout;horizontal=1;startSize=26;horizontalStack=0;resizeParent=1;resizeParentMax=0;resizeLast=0;collapsible=1;marginBottom=0;whiteSpace=wrap;html=1;fontFamily=Helvetica;fontSize=11;fillColor=#dae8fc;strokeColor=#6c8ebf;" vertex="1" collapsed="1" parent="1">
          <mxGeometry x="-690" y="2160" width="180" height="30" as="geometry">
            <mxRectangle x="1650" y="960" width="180" height="52" as="alternateBounds" />
          </mxGeometry>
        </mxCell>
        <mxCell id="9o_0vOJ_n6I8ADiCMsV1-24" value="boost::asio::ip::&amp;nbsp; &amp;nbsp;(free methods)" style="swimlane;fontStyle=1;align=center;verticalAlign=top;childLayout=stackLayout;horizontal=1;startSize=26;horizontalStack=0;resizeParent=1;resizeParentMax=0;resizeLast=0;collapsible=1;marginBottom=0;whiteSpace=wrap;html=1;fontFamily=Helvetica;fontSize=11;fillColor=#dae8fc;strokeColor=#6c8ebf;" vertex="1" parent="1">
          <mxGeometry x="-920" y="832" width="300" height="104" as="geometry">
            <mxRectangle x="340" y="490" width="100" height="30" as="alternateBounds" />
          </mxGeometry>
        </mxCell>
        <mxCell id="9o_0vOJ_n6I8ADiCMsV1-152" value="&lt;span&gt;connection&lt;/span&gt;" style="text;strokeColor=#6c8ebf;fillColor=#dae8fc;align=center;verticalAlign=top;spacingLeft=4;spacingRight=4;overflow=hidden;rotatable=0;points=[[0,0.5],[1,0.5]];portConstraint=eastwest;whiteSpace=wrap;html=1;fontSize=11;fontFamily=Helvetica;fontStyle=1" vertex="1" parent="9o_0vOJ_n6I8ADiCMsV1-24">
          <mxGeometry y="26" width="300" height="26" as="geometry" />
        </mxCell>
        <mxCell id="9o_0vOJ_n6I8ADiCMsV1-25" value="&lt;u&gt;connect(socket, begin [, end] [, condition])&lt;/u&gt;" style="text;strokeColor=#6c8ebf;fillColor=#dae8fc;align=left;verticalAlign=top;spacingLeft=4;spacingRight=4;overflow=hidden;rotatable=0;points=[[0,0.5],[1,0.5]];portConstraint=eastwest;whiteSpace=wrap;html=1;fontSize=11;fontFamily=Helvetica;" vertex="1" parent="9o_0vOJ_n6I8ADiCMsV1-24">
          <mxGeometry y="52" width="300" height="26" as="geometry" />
        </mxCell>
        <mxCell id="9o_0vOJ_n6I8ADiCMsV1-26" value="&lt;u&gt;async_connect(socket, begin [, end] [, condition], handler)&lt;/u&gt;" style="text;strokeColor=#6c8ebf;fillColor=#dae8fc;align=left;verticalAlign=top;spacingLeft=4;spacingRight=4;overflow=hidden;rotatable=0;points=[[0,0.5],[1,0.5]];portConstraint=eastwest;whiteSpace=wrap;html=1;fontSize=11;fontFamily=Helvetica;" vertex="1" parent="9o_0vOJ_n6I8ADiCMsV1-24">
          <mxGeometry y="78" width="300" height="26" as="geometry" />
        </mxCell>
        <mxCell id="9o_0vOJ_n6I8ADiCMsV1-33" value="boost::asio::error" style="swimlane;fontStyle=1;align=center;verticalAlign=top;childLayout=stackLayout;horizontal=1;startSize=26;horizontalStack=0;resizeParent=1;resizeParentMax=0;resizeLast=0;collapsible=1;marginBottom=0;whiteSpace=wrap;html=1;fontFamily=Helvetica;fontSize=11;fillColor=#dae8fc;strokeColor=#6c8ebf;" vertex="1" parent="1">
          <mxGeometry x="-920" y="1920" width="160" height="52" as="geometry">
            <mxRectangle x="340" y="490" width="100" height="30" as="alternateBounds" />
          </mxGeometry>
        </mxCell>
        <mxCell id="9o_0vOJ_n6I8ADiCMsV1-34" value="...." style="text;strokeColor=#6c8ebf;fillColor=#dae8fc;align=left;verticalAlign=top;spacingLeft=4;spacingRight=4;overflow=hidden;rotatable=0;points=[[0,0.5],[1,0.5]];portConstraint=eastwest;whiteSpace=wrap;html=1;fontSize=11;fontFamily=Helvetica;" vertex="1" parent="9o_0vOJ_n6I8ADiCMsV1-33">
          <mxGeometry y="26" width="160" height="26" as="geometry" />
        </mxCell>
        <mxCell id="9o_0vOJ_n6I8ADiCMsV1-35" value="boost::asio::ssl" style="swimlane;fontStyle=1;align=center;verticalAlign=top;childLayout=stackLayout;horizontal=1;startSize=26;horizontalStack=0;resizeParent=1;resizeParentMax=0;resizeLast=0;collapsible=1;marginBottom=0;whiteSpace=wrap;html=1;fontFamily=Helvetica;fontSize=11;fillColor=#dae8fc;strokeColor=#6c8ebf;" vertex="1" parent="1">
          <mxGeometry x="-720" y="1920" width="160" height="52" as="geometry">
            <mxRectangle x="340" y="490" width="100" height="30" as="alternateBounds" />
          </mxGeometry>
        </mxCell>
        <mxCell id="9o_0vOJ_n6I8ADiCMsV1-36" value="...." style="text;strokeColor=#6c8ebf;fillColor=#dae8fc;align=left;verticalAlign=top;spacingLeft=4;spacingRight=4;overflow=hidden;rotatable=0;points=[[0,0.5],[1,0.5]];portConstraint=eastwest;whiteSpace=wrap;html=1;fontSize=11;fontFamily=Helvetica;" vertex="1" parent="9o_0vOJ_n6I8ADiCMsV1-35">
          <mxGeometry y="26" width="160" height="26" as="geometry" />
        </mxCell>
        <mxCell id="9o_0vOJ_n6I8ADiCMsV1-37" value="boost::asio::local" style="swimlane;fontStyle=1;align=center;verticalAlign=top;childLayout=stackLayout;horizontal=1;startSize=26;horizontalStack=0;resizeParent=1;resizeParentMax=0;resizeLast=0;collapsible=1;marginBottom=0;whiteSpace=wrap;html=1;fontFamily=Helvetica;fontSize=11;fillColor=#dae8fc;strokeColor=#6c8ebf;" vertex="1" parent="1">
          <mxGeometry x="-520" y="1920" width="160" height="52" as="geometry">
            <mxRectangle x="340" y="490" width="100" height="30" as="alternateBounds" />
          </mxGeometry>
        </mxCell>
        <mxCell id="9o_0vOJ_n6I8ADiCMsV1-38" value="...." style="text;strokeColor=#6c8ebf;fillColor=#dae8fc;align=left;verticalAlign=top;spacingLeft=4;spacingRight=4;overflow=hidden;rotatable=0;points=[[0,0.5],[1,0.5]];portConstraint=eastwest;whiteSpace=wrap;html=1;fontSize=11;fontFamily=Helvetica;" vertex="1" parent="9o_0vOJ_n6I8ADiCMsV1-37">
          <mxGeometry y="26" width="160" height="26" as="geometry" />
        </mxCell>
        <mxCell id="9o_0vOJ_n6I8ADiCMsV1-39" value="boost::asio::windows" style="swimlane;fontStyle=1;align=center;verticalAlign=top;childLayout=stackLayout;horizontal=1;startSize=26;horizontalStack=0;resizeParent=1;resizeParentMax=0;resizeLast=0;collapsible=1;marginBottom=0;whiteSpace=wrap;html=1;fontFamily=Helvetica;fontSize=11;fillColor=#dae8fc;strokeColor=#6c8ebf;" vertex="1" parent="1">
          <mxGeometry x="-320" y="1920" width="160" height="52" as="geometry">
            <mxRectangle x="340" y="490" width="100" height="30" as="alternateBounds" />
          </mxGeometry>
        </mxCell>
        <mxCell id="9o_0vOJ_n6I8ADiCMsV1-40" value="...." style="text;strokeColor=#6c8ebf;fillColor=#dae8fc;align=left;verticalAlign=top;spacingLeft=4;spacingRight=4;overflow=hidden;rotatable=0;points=[[0,0.5],[1,0.5]];portConstraint=eastwest;whiteSpace=wrap;html=1;fontSize=11;fontFamily=Helvetica;" vertex="1" parent="9o_0vOJ_n6I8ADiCMsV1-39">
          <mxGeometry y="26" width="160" height="26" as="geometry" />
        </mxCell>
        <mxCell id="9o_0vOJ_n6I8ADiCMsV1-42" value="boost::asio::ip::address_v4" style="swimlane;fontStyle=1;align=center;verticalAlign=top;childLayout=stackLayout;horizontal=1;startSize=26;horizontalStack=0;resizeParent=1;resizeParentMax=0;resizeLast=0;collapsible=1;marginBottom=0;whiteSpace=wrap;html=1;fontFamily=Helvetica;fontSize=11;fillColor=#dae8fc;strokeColor=#6c8ebf;" vertex="1" parent="1">
          <mxGeometry x="-140" y="640" width="180" height="104" as="geometry">
            <mxRectangle x="340" y="490" width="100" height="30" as="alternateBounds" />
          </mxGeometry>
        </mxCell>
        <mxCell id="9o_0vOJ_n6I8ADiCMsV1-49" value="broadcast([addr, mask])" style="text;strokeColor=#6c8ebf;fillColor=#dae8fc;align=left;verticalAlign=top;spacingLeft=4;spacingRight=4;overflow=hidden;rotatable=0;points=[[0,0.5],[1,0.5]];portConstraint=eastwest;whiteSpace=wrap;html=1;fontSize=11;fontFamily=Helvetica;" vertex="1" parent="9o_0vOJ_n6I8ADiCMsV1-42">
          <mxGeometry y="26" width="180" height="26" as="geometry" />
        </mxCell>
        <mxCell id="9o_0vOJ_n6I8ADiCMsV1-50" value="any()" style="text;strokeColor=#6c8ebf;fillColor=#dae8fc;align=left;verticalAlign=top;spacingLeft=4;spacingRight=4;overflow=hidden;rotatable=0;points=[[0,0.5],[1,0.5]];portConstraint=eastwest;whiteSpace=wrap;html=1;fontSize=11;fontFamily=Helvetica;" vertex="1" parent="9o_0vOJ_n6I8ADiCMsV1-42">
          <mxGeometry y="52" width="180" height="26" as="geometry" />
        </mxCell>
        <mxCell id="9o_0vOJ_n6I8ADiCMsV1-51" value="loopback()" style="text;strokeColor=#6c8ebf;fillColor=#dae8fc;align=left;verticalAlign=top;spacingLeft=4;spacingRight=4;overflow=hidden;rotatable=0;points=[[0,0.5],[1,0.5]];portConstraint=eastwest;whiteSpace=wrap;html=1;fontSize=11;fontFamily=Helvetica;" vertex="1" parent="9o_0vOJ_n6I8ADiCMsV1-42">
          <mxGeometry y="78" width="180" height="26" as="geometry" />
        </mxCell>
        <mxCell id="9o_0vOJ_n6I8ADiCMsV1-45" value="boost::asio::ip::address_v6" style="swimlane;fontStyle=1;align=center;verticalAlign=top;childLayout=stackLayout;horizontal=1;startSize=26;horizontalStack=0;resizeParent=1;resizeParentMax=0;resizeLast=0;collapsible=1;marginBottom=0;whiteSpace=wrap;html=1;fontFamily=Helvetica;fontSize=11;fillColor=#dae8fc;strokeColor=#6c8ebf;" vertex="1" parent="1">
          <mxGeometry x="-140" y="760" width="180" height="52" as="geometry">
            <mxRectangle x="340" y="490" width="100" height="30" as="alternateBounds" />
          </mxGeometry>
        </mxCell>
        <mxCell id="9o_0vOJ_n6I8ADiCMsV1-52" value="loopback()" style="text;strokeColor=#6c8ebf;fillColor=#dae8fc;align=left;verticalAlign=top;spacingLeft=4;spacingRight=4;overflow=hidden;rotatable=0;points=[[0,0.5],[1,0.5]];portConstraint=eastwest;whiteSpace=wrap;html=1;fontSize=11;fontFamily=Helvetica;" vertex="1" parent="9o_0vOJ_n6I8ADiCMsV1-45">
          <mxGeometry y="26" width="180" height="26" as="geometry" />
        </mxCell>
        <mxCell id="9o_0vOJ_n6I8ADiCMsV1-58" value="boost::asio::ip::tcp::acceptor" style="swimlane;fontStyle=1;align=center;verticalAlign=top;childLayout=stackLayout;horizontal=1;startSize=26;horizontalStack=0;resizeParent=1;resizeParentMax=0;resizeLast=0;collapsible=1;marginBottom=0;whiteSpace=wrap;html=1;fontFamily=Helvetica;fontSize=11;fillColor=#dae8fc;strokeColor=#6c8ebf;" vertex="1" collapsed="1" parent="1">
          <mxGeometry x="-920" y="2212" width="190" height="30" as="geometry">
            <mxRectangle x="1410" y="1040" width="180" height="52" as="alternateBounds" />
          </mxGeometry>
        </mxCell>
        <mxCell id="9o_0vOJ_n6I8ADiCMsV1-59" value="...." style="text;strokeColor=#6c8ebf;fillColor=#dae8fc;align=left;verticalAlign=top;spacingLeft=4;spacingRight=4;overflow=hidden;rotatable=0;points=[[0,0.5],[1,0.5]];portConstraint=eastwest;whiteSpace=wrap;html=1;fontSize=11;fontFamily=Helvetica;" vertex="1" parent="9o_0vOJ_n6I8ADiCMsV1-58">
          <mxGeometry y="26" width="180" height="26" as="geometry" />
        </mxCell>
        <mxCell id="9o_0vOJ_n6I8ADiCMsV1-60" value="boost::asio::ip::tcp::endpoint" style="swimlane;fontStyle=1;align=center;verticalAlign=top;childLayout=stackLayout;horizontal=1;startSize=26;horizontalStack=0;resizeParent=1;resizeParentMax=0;resizeLast=0;collapsible=1;marginBottom=0;whiteSpace=wrap;html=1;fontFamily=Helvetica;fontSize=11;fillColor=#dae8fc;strokeColor=#6c8ebf;" vertex="1" collapsed="1" parent="1">
          <mxGeometry x="-920" y="2251" width="190" height="30" as="geometry">
            <mxRectangle x="1410" y="1120" width="180" height="52" as="alternateBounds" />
          </mxGeometry>
        </mxCell>
        <mxCell id="9o_0vOJ_n6I8ADiCMsV1-61" value="...." style="text;strokeColor=#6c8ebf;fillColor=#dae8fc;align=left;verticalAlign=top;spacingLeft=4;spacingRight=4;overflow=hidden;rotatable=0;points=[[0,0.5],[1,0.5]];portConstraint=eastwest;whiteSpace=wrap;html=1;fontSize=11;fontFamily=Helvetica;" vertex="1" parent="9o_0vOJ_n6I8ADiCMsV1-60">
          <mxGeometry y="26" width="180" height="26" as="geometry" />
        </mxCell>
        <mxCell id="9o_0vOJ_n6I8ADiCMsV1-63" value="boost::asio::ip::tcp::resolver" style="swimlane;fontStyle=1;align=center;verticalAlign=top;childLayout=stackLayout;horizontal=1;startSize=26;horizontalStack=0;resizeParent=1;resizeParentMax=0;resizeLast=0;collapsible=1;marginBottom=0;whiteSpace=wrap;html=1;fontFamily=Helvetica;fontSize=11;fillColor=#dae8fc;strokeColor=#6c8ebf;" vertex="1" collapsed="1" parent="1">
          <mxGeometry x="-920" y="2290" width="190" height="30" as="geometry">
            <mxRectangle x="1410" y="1200" width="180" height="52" as="alternateBounds" />
          </mxGeometry>
        </mxCell>
        <mxCell id="9o_0vOJ_n6I8ADiCMsV1-64" value="...." style="text;strokeColor=#6c8ebf;fillColor=#dae8fc;align=left;verticalAlign=top;spacingLeft=4;spacingRight=4;overflow=hidden;rotatable=0;points=[[0,0.5],[1,0.5]];portConstraint=eastwest;whiteSpace=wrap;html=1;fontSize=11;fontFamily=Helvetica;" vertex="1" parent="9o_0vOJ_n6I8ADiCMsV1-63">
          <mxGeometry y="26" width="180" height="26" as="geometry" />
        </mxCell>
        <mxCell id="9o_0vOJ_n6I8ADiCMsV1-65" value="boost::asio::ip::tcp::iostream" style="swimlane;fontStyle=1;align=center;verticalAlign=top;childLayout=stackLayout;horizontal=1;startSize=26;horizontalStack=0;resizeParent=1;resizeParentMax=0;resizeLast=0;collapsible=1;marginBottom=0;whiteSpace=wrap;html=1;fontFamily=Helvetica;fontSize=11;fillColor=#dae8fc;strokeColor=#6c8ebf;" vertex="1" collapsed="1" parent="1">
          <mxGeometry x="-920" y="2331" width="190" height="30" as="geometry">
            <mxRectangle x="1410" y="1280" width="180" height="52" as="alternateBounds" />
          </mxGeometry>
        </mxCell>
        <mxCell id="9o_0vOJ_n6I8ADiCMsV1-66" value="...." style="text;strokeColor=#6c8ebf;fillColor=#dae8fc;align=left;verticalAlign=top;spacingLeft=4;spacingRight=4;overflow=hidden;rotatable=0;points=[[0,0.5],[1,0.5]];portConstraint=eastwest;whiteSpace=wrap;html=1;fontSize=11;fontFamily=Helvetica;" vertex="1" parent="9o_0vOJ_n6I8ADiCMsV1-65">
          <mxGeometry y="26" width="180" height="26" as="geometry" />
        </mxCell>
        <mxCell id="9o_0vOJ_n6I8ADiCMsV1-67" value="boost::asio::ip::udp::endpoint" style="swimlane;fontStyle=1;align=center;verticalAlign=top;childLayout=stackLayout;horizontal=1;startSize=26;horizontalStack=0;resizeParent=1;resizeParentMax=0;resizeLast=0;collapsible=1;marginBottom=0;whiteSpace=wrap;html=1;fontFamily=Helvetica;fontSize=11;fillColor=#dae8fc;strokeColor=#6c8ebf;" vertex="1" collapsed="1" parent="1">
          <mxGeometry x="-690" y="2251" width="180" height="30" as="geometry">
            <mxRectangle x="1640" y="1001" width="180" height="52" as="alternateBounds" />
          </mxGeometry>
        </mxCell>
        <mxCell id="9o_0vOJ_n6I8ADiCMsV1-68" value="...." style="text;strokeColor=#6c8ebf;fillColor=#dae8fc;align=left;verticalAlign=top;spacingLeft=4;spacingRight=4;overflow=hidden;rotatable=0;points=[[0,0.5],[1,0.5]];portConstraint=eastwest;whiteSpace=wrap;html=1;fontSize=11;fontFamily=Helvetica;" vertex="1" parent="9o_0vOJ_n6I8ADiCMsV1-67">
          <mxGeometry y="26" width="180" height="26" as="geometry" />
        </mxCell>
        <mxCell id="9o_0vOJ_n6I8ADiCMsV1-69" value="boost::asio::ip::udp::resolver" style="swimlane;fontStyle=1;align=center;verticalAlign=top;childLayout=stackLayout;horizontal=1;startSize=26;horizontalStack=0;resizeParent=1;resizeParentMax=0;resizeLast=0;collapsible=1;marginBottom=0;whiteSpace=wrap;html=1;fontFamily=Helvetica;fontSize=11;fillColor=#dae8fc;strokeColor=#6c8ebf;" vertex="1" collapsed="1" parent="1">
          <mxGeometry x="-690" y="2290" width="180" height="30" as="geometry">
            <mxRectangle x="1640" y="1040" width="180" height="52" as="alternateBounds" />
          </mxGeometry>
        </mxCell>
        <mxCell id="9o_0vOJ_n6I8ADiCMsV1-70" value="...." style="text;strokeColor=#6c8ebf;fillColor=#dae8fc;align=left;verticalAlign=top;spacingLeft=4;spacingRight=4;overflow=hidden;rotatable=0;points=[[0,0.5],[1,0.5]];portConstraint=eastwest;whiteSpace=wrap;html=1;fontSize=11;fontFamily=Helvetica;" vertex="1" parent="9o_0vOJ_n6I8ADiCMsV1-69">
          <mxGeometry y="26" width="180" height="26" as="geometry" />
        </mxCell>
        <mxCell id="9o_0vOJ_n6I8ADiCMsV1-83" value="boost::asio::ip::tcp&lt;br&gt;boost::asio::ip::tcp::socket" style="swimlane;fontStyle=1;align=center;verticalAlign=top;childLayout=stackLayout;horizontal=1;startSize=40;horizontalStack=0;resizeParent=1;resizeParentMax=0;resizeLast=0;collapsible=1;marginBottom=0;whiteSpace=wrap;html=1;fontFamily=Helvetica;fontSize=11;fillColor=#dae8fc;strokeColor=#6c8ebf;" vertex="1" collapsed="1" parent="1">
          <mxGeometry x="-920" y="2160" width="190" height="40" as="geometry">
            <mxRectangle x="1410" y="960" width="180" height="48" as="alternateBounds" />
          </mxGeometry>
        </mxCell>
        <mxCell id="9o_0vOJ_n6I8ADiCMsV1-116" value="flags" style="swimlane;fontStyle=1;align=center;verticalAlign=top;childLayout=stackLayout;horizontal=1;startSize=26;horizontalStack=0;resizeParent=1;resizeParentMax=0;resizeLast=0;collapsible=1;marginBottom=0;whiteSpace=wrap;html=1;fontFamily=Helvetica;fontSize=11;fillColor=#dae8fc;strokeColor=#6c8ebf;" vertex="1" parent="1">
          <mxGeometry x="-80" y="1601" width="260" height="130" as="geometry">
            <mxRectangle x="340" y="490" width="100" height="30" as="alternateBounds" />
          </mxGeometry>
        </mxCell>
        <mxCell id="9o_0vOJ_n6I8ADiCMsV1-117" value="ip::socket_type::socket::message_peek" style="text;strokeColor=#6c8ebf;fillColor=#dae8fc;align=left;verticalAlign=top;spacingLeft=4;spacingRight=4;overflow=hidden;rotatable=0;points=[[0,0.5],[1,0.5]];portConstraint=eastwest;whiteSpace=wrap;html=1;fontSize=11;fontFamily=Helvetica;" vertex="1" parent="9o_0vOJ_n6I8ADiCMsV1-116">
          <mxGeometry y="26" width="260" height="26" as="geometry" />
        </mxCell>
        <mxCell id="9o_0vOJ_n6I8ADiCMsV1-120" value="ip::socket_type::socket::message_out_of_band" style="text;strokeColor=#6c8ebf;fillColor=#dae8fc;align=left;verticalAlign=top;spacingLeft=4;spacingRight=4;overflow=hidden;rotatable=0;points=[[0,0.5],[1,0.5]];portConstraint=eastwest;whiteSpace=wrap;html=1;fontSize=11;fontFamily=Helvetica;" vertex="1" parent="9o_0vOJ_n6I8ADiCMsV1-116">
          <mxGeometry y="52" width="260" height="26" as="geometry" />
        </mxCell>
        <mxCell id="9o_0vOJ_n6I8ADiCMsV1-121" value="ip::socket_type::socket::message_do_not_route" style="text;strokeColor=#6c8ebf;fillColor=#dae8fc;align=left;verticalAlign=top;spacingLeft=4;spacingRight=4;overflow=hidden;rotatable=0;points=[[0,0.5],[1,0.5]];portConstraint=eastwest;whiteSpace=wrap;html=1;fontSize=11;fontFamily=Helvetica;" vertex="1" parent="9o_0vOJ_n6I8ADiCMsV1-116">
          <mxGeometry y="78" width="260" height="26" as="geometry" />
        </mxCell>
        <mxCell id="9o_0vOJ_n6I8ADiCMsV1-122" value="ip::socket_type::socket::message_end_of_record" style="text;strokeColor=#6c8ebf;fillColor=#dae8fc;align=left;verticalAlign=top;spacingLeft=4;spacingRight=4;overflow=hidden;rotatable=0;points=[[0,0.5],[1,0.5]];portConstraint=eastwest;whiteSpace=wrap;html=1;fontSize=11;fontFamily=Helvetica;" vertex="1" parent="9o_0vOJ_n6I8ADiCMsV1-116">
          <mxGeometry y="104" width="260" height="26" as="geometry" />
        </mxCell>
        <mxCell id="9o_0vOJ_n6I8ADiCMsV1-142" value="boost::asio::streambuf" style="swimlane;fontStyle=1;align=center;verticalAlign=top;childLayout=stackLayout;horizontal=1;startSize=26;horizontalStack=0;resizeParent=1;resizeParentMax=0;resizeLast=0;collapsible=1;marginBottom=0;whiteSpace=wrap;html=1;fontFamily=Helvetica;fontSize=11;fillColor=#dae8fc;strokeColor=#6c8ebf;" vertex="1" parent="1">
          <mxGeometry x="-920" y="592" width="220" height="208" as="geometry">
            <mxRectangle x="340" y="490" width="100" height="30" as="alternateBounds" />
          </mxGeometry>
        </mxCell>
        <mxCell id="9o_0vOJ_n6I8ADiCMsV1-143" value="streambuf ([max_size,] [allocator])" style="text;strokeColor=#6c8ebf;fillColor=#dae8fc;align=left;verticalAlign=top;spacingLeft=4;spacingRight=4;overflow=hidden;rotatable=0;points=[[0,0.5],[1,0.5]];portConstraint=eastwest;whiteSpace=wrap;html=1;fontSize=11;fontFamily=Helvetica;" vertex="1" parent="9o_0vOJ_n6I8ADiCMsV1-142">
          <mxGeometry y="26" width="220" height="26" as="geometry" />
        </mxCell>
        <mxCell id="9o_0vOJ_n6I8ADiCMsV1-146" value="prepare(n)" style="text;strokeColor=#6c8ebf;fillColor=#dae8fc;align=left;verticalAlign=top;spacingLeft=4;spacingRight=4;overflow=hidden;rotatable=0;points=[[0,0.5],[1,0.5]];portConstraint=eastwest;whiteSpace=wrap;html=1;fontSize=11;fontFamily=Helvetica;" vertex="1" parent="9o_0vOJ_n6I8ADiCMsV1-142">
          <mxGeometry y="52" width="220" height="26" as="geometry" />
        </mxCell>
        <mxCell id="9o_0vOJ_n6I8ADiCMsV1-147" value="data()" style="text;strokeColor=#6c8ebf;fillColor=#dae8fc;align=left;verticalAlign=top;spacingLeft=4;spacingRight=4;overflow=hidden;rotatable=0;points=[[0,0.5],[1,0.5]];portConstraint=eastwest;whiteSpace=wrap;html=1;fontSize=11;fontFamily=Helvetica;" vertex="1" parent="9o_0vOJ_n6I8ADiCMsV1-142">
          <mxGeometry y="78" width="220" height="26" as="geometry" />
        </mxCell>
        <mxCell id="9o_0vOJ_n6I8ADiCMsV1-148" value="consume(n)" style="text;strokeColor=#6c8ebf;fillColor=#dae8fc;align=left;verticalAlign=top;spacingLeft=4;spacingRight=4;overflow=hidden;rotatable=0;points=[[0,0.5],[1,0.5]];portConstraint=eastwest;whiteSpace=wrap;html=1;fontSize=11;fontFamily=Helvetica;" vertex="1" parent="9o_0vOJ_n6I8ADiCMsV1-142">
          <mxGeometry y="104" width="220" height="26" as="geometry" />
        </mxCell>
        <mxCell id="9o_0vOJ_n6I8ADiCMsV1-149" value="commit(n)" style="text;strokeColor=#6c8ebf;fillColor=#dae8fc;align=left;verticalAlign=top;spacingLeft=4;spacingRight=4;overflow=hidden;rotatable=0;points=[[0,0.5],[1,0.5]];portConstraint=eastwest;whiteSpace=wrap;html=1;fontSize=11;fontFamily=Helvetica;" vertex="1" parent="9o_0vOJ_n6I8ADiCMsV1-142">
          <mxGeometry y="130" width="220" height="26" as="geometry" />
        </mxCell>
        <mxCell id="9o_0vOJ_n6I8ADiCMsV1-150" value="size()" style="text;strokeColor=#6c8ebf;fillColor=#dae8fc;align=left;verticalAlign=top;spacingLeft=4;spacingRight=4;overflow=hidden;rotatable=0;points=[[0,0.5],[1,0.5]];portConstraint=eastwest;whiteSpace=wrap;html=1;fontSize=11;fontFamily=Helvetica;" vertex="1" parent="9o_0vOJ_n6I8ADiCMsV1-142">
          <mxGeometry y="156" width="220" height="26" as="geometry" />
        </mxCell>
        <mxCell id="9o_0vOJ_n6I8ADiCMsV1-151" value="max_size()" style="text;strokeColor=#6c8ebf;fillColor=#dae8fc;align=left;verticalAlign=top;spacingLeft=4;spacingRight=4;overflow=hidden;rotatable=0;points=[[0,0.5],[1,0.5]];portConstraint=eastwest;whiteSpace=wrap;html=1;fontSize=11;fontFamily=Helvetica;" vertex="1" parent="9o_0vOJ_n6I8ADiCMsV1-142">
          <mxGeometry y="182" width="220" height="26" as="geometry" />
        </mxCell>
        <mxCell id="9o_0vOJ_n6I8ADiCMsV1-153" value="boost::asio::ip::&amp;lt;any&amp;gt;::socket" style="swimlane;fontStyle=1;align=center;verticalAlign=top;childLayout=stackLayout;horizontal=1;startSize=26;horizontalStack=0;resizeParent=1;resizeParentMax=0;resizeLast=0;collapsible=1;marginBottom=0;whiteSpace=wrap;html=1;fontFamily=Helvetica;fontSize=11;fillColor=#dae8fc;strokeColor=#6c8ebf;" vertex="1" parent="1">
          <mxGeometry x="-920" y="1360" width="340" height="286" as="geometry">
            <mxRectangle x="340" y="490" width="100" height="30" as="alternateBounds" />
          </mxGeometry>
        </mxCell>
        <mxCell id="9o_0vOJ_n6I8ADiCMsV1-154" value="connections" style="text;align=center;verticalAlign=top;spacingLeft=4;spacingRight=4;overflow=hidden;rotatable=0;points=[[0,0.5],[1,0.5]];portConstraint=eastwest;whiteSpace=wrap;html=1;fontSize=11;fontFamily=Helvetica;fillColor=#dae8fc;strokeColor=#6c8ebf;fontStyle=1" vertex="1" parent="9o_0vOJ_n6I8ADiCMsV1-153">
          <mxGeometry y="26" width="340" height="26" as="geometry" />
        </mxCell>
        <mxCell id="9o_0vOJ_n6I8ADiCMsV1-155" value="assign(protocol,socket)" style="text;strokeColor=#6c8ebf;fillColor=#dae8fc;align=left;verticalAlign=top;spacingLeft=4;spacingRight=4;overflow=hidden;rotatable=0;points=[[0,0.5],[1,0.5]];portConstraint=eastwest;whiteSpace=wrap;html=1;fontSize=11;fontFamily=Helvetica;" vertex="1" parent="9o_0vOJ_n6I8ADiCMsV1-153">
          <mxGeometry y="52" width="340" height="26" as="geometry" />
        </mxCell>
        <mxCell id="9o_0vOJ_n6I8ADiCMsV1-156" value="open(protocol)" style="text;strokeColor=#6c8ebf;fillColor=#dae8fc;align=left;verticalAlign=top;spacingLeft=4;spacingRight=4;overflow=hidden;rotatable=0;points=[[0,0.5],[1,0.5]];portConstraint=eastwest;whiteSpace=wrap;html=1;fontSize=11;fontFamily=Helvetica;" vertex="1" parent="9o_0vOJ_n6I8ADiCMsV1-153">
          <mxGeometry y="78" width="340" height="26" as="geometry" />
        </mxCell>
        <mxCell id="9o_0vOJ_n6I8ADiCMsV1-157" value="bind(endpoint)" style="text;strokeColor=#6c8ebf;fillColor=#dae8fc;align=left;verticalAlign=top;spacingLeft=4;spacingRight=4;overflow=hidden;rotatable=0;points=[[0,0.5],[1,0.5]];portConstraint=eastwest;whiteSpace=wrap;html=1;fontSize=11;fontFamily=Helvetica;" vertex="1" parent="9o_0vOJ_n6I8ADiCMsV1-153">
          <mxGeometry y="104" width="340" height="26" as="geometry" />
        </mxCell>
        <mxCell id="9o_0vOJ_n6I8ADiCMsV1-158" value="connect(endpoint)" style="text;strokeColor=#6c8ebf;fillColor=#dae8fc;align=left;verticalAlign=top;spacingLeft=4;spacingRight=4;overflow=hidden;rotatable=0;points=[[0,0.5],[1,0.5]];portConstraint=eastwest;whiteSpace=wrap;html=1;fontSize=11;fontFamily=Helvetica;" vertex="1" parent="9o_0vOJ_n6I8ADiCMsV1-153">
          <mxGeometry y="130" width="340" height="26" as="geometry" />
        </mxCell>
        <mxCell id="9o_0vOJ_n6I8ADiCMsV1-159" value="async_connect(endpoint)" style="text;strokeColor=#6c8ebf;fillColor=#dae8fc;align=left;verticalAlign=top;spacingLeft=4;spacingRight=4;overflow=hidden;rotatable=0;points=[[0,0.5],[1,0.5]];portConstraint=eastwest;whiteSpace=wrap;html=1;fontSize=11;fontFamily=Helvetica;" vertex="1" parent="9o_0vOJ_n6I8ADiCMsV1-153">
          <mxGeometry y="156" width="340" height="26" as="geometry" />
        </mxCell>
        <mxCell id="9o_0vOJ_n6I8ADiCMsV1-160" value="is_open()" style="text;strokeColor=#6c8ebf;fillColor=#dae8fc;align=left;verticalAlign=top;spacingLeft=4;spacingRight=4;overflow=hidden;rotatable=0;points=[[0,0.5],[1,0.5]];portConstraint=eastwest;whiteSpace=wrap;html=1;fontSize=11;fontFamily=Helvetica;" vertex="1" parent="9o_0vOJ_n6I8ADiCMsV1-153">
          <mxGeometry y="182" width="340" height="26" as="geometry" />
        </mxCell>
        <mxCell id="9o_0vOJ_n6I8ADiCMsV1-161" value="close()" style="text;strokeColor=#6c8ebf;fillColor=#dae8fc;align=left;verticalAlign=top;spacingLeft=4;spacingRight=4;overflow=hidden;rotatable=0;points=[[0,0.5],[1,0.5]];portConstraint=eastwest;whiteSpace=wrap;html=1;fontSize=11;fontFamily=Helvetica;" vertex="1" parent="9o_0vOJ_n6I8ADiCMsV1-153">
          <mxGeometry y="208" width="340" height="26" as="geometry" />
        </mxCell>
        <mxCell id="9o_0vOJ_n6I8ADiCMsV1-162" value="shutdown( send/recieve/both op )" style="text;strokeColor=#6c8ebf;fillColor=#dae8fc;align=left;verticalAlign=top;spacingLeft=4;spacingRight=4;overflow=hidden;rotatable=0;points=[[0,0.5],[1,0.5]];portConstraint=eastwest;whiteSpace=wrap;html=1;fontSize=11;fontFamily=Helvetica;" vertex="1" parent="9o_0vOJ_n6I8ADiCMsV1-153">
          <mxGeometry y="234" width="340" height="26" as="geometry" />
        </mxCell>
        <mxCell id="9o_0vOJ_n6I8ADiCMsV1-163" value="cancel()" style="text;strokeColor=#6c8ebf;fillColor=#dae8fc;align=left;verticalAlign=top;spacingLeft=4;spacingRight=4;overflow=hidden;rotatable=0;points=[[0,0.5],[1,0.5]];portConstraint=eastwest;whiteSpace=wrap;html=1;fontSize=11;fontFamily=Helvetica;" vertex="1" parent="9o_0vOJ_n6I8ADiCMsV1-153">
          <mxGeometry y="260" width="340" height="26" as="geometry" />
        </mxCell>
        <mxCell id="9o_0vOJ_n6I8ADiCMsV1-205" value="boost::asio::ip::&amp;lt;any&amp;gt;::socket" style="swimlane;fontStyle=1;align=center;verticalAlign=top;childLayout=stackLayout;horizontal=1;startSize=26;horizontalStack=0;resizeParent=1;resizeParentMax=0;resizeLast=0;collapsible=1;marginBottom=0;whiteSpace=wrap;html=1;fontFamily=Helvetica;fontSize=11;fillColor=#dae8fc;strokeColor=#6c8ebf;" vertex="1" parent="1">
          <mxGeometry x="-160" y="1360" width="340" height="208" as="geometry">
            <mxRectangle x="340" y="490" width="100" height="30" as="alternateBounds" />
          </mxGeometry>
        </mxCell>
        <mxCell id="9o_0vOJ_n6I8ADiCMsV1-214" value="control" style="text;align=center;verticalAlign=top;spacingLeft=4;spacingRight=4;overflow=hidden;rotatable=0;points=[[0,0.5],[1,0.5]];portConstraint=eastwest;whiteSpace=wrap;html=1;fontSize=11;fontFamily=Helvetica;fillColor=#dae8fc;strokeColor=#6c8ebf;fontStyle=1" vertex="1" parent="9o_0vOJ_n6I8ADiCMsV1-205">
          <mxGeometry y="26" width="340" height="26" as="geometry" />
        </mxCell>
        <mxCell id="9o_0vOJ_n6I8ADiCMsV1-215" value="get_io_service()" style="text;strokeColor=#6c8ebf;fillColor=#dae8fc;align=left;verticalAlign=top;spacingLeft=4;spacingRight=4;overflow=hidden;rotatable=0;points=[[0,0.5],[1,0.5]];portConstraint=eastwest;whiteSpace=wrap;html=1;fontSize=11;fontFamily=Helvetica;" vertex="1" parent="9o_0vOJ_n6I8ADiCMsV1-205">
          <mxGeometry y="52" width="340" height="26" as="geometry" />
        </mxCell>
        <mxCell id="9o_0vOJ_n6I8ADiCMsV1-216" value="get_option(option)" style="text;strokeColor=#6c8ebf;fillColor=#dae8fc;align=left;verticalAlign=top;spacingLeft=4;spacingRight=4;overflow=hidden;rotatable=0;points=[[0,0.5],[1,0.5]];portConstraint=eastwest;whiteSpace=wrap;html=1;fontSize=11;fontFamily=Helvetica;" vertex="1" parent="9o_0vOJ_n6I8ADiCMsV1-205">
          <mxGeometry y="78" width="340" height="26" as="geometry" />
        </mxCell>
        <mxCell id="9o_0vOJ_n6I8ADiCMsV1-217" value="set_option(option)" style="text;strokeColor=#6c8ebf;fillColor=#dae8fc;align=left;verticalAlign=top;spacingLeft=4;spacingRight=4;overflow=hidden;rotatable=0;points=[[0,0.5],[1,0.5]];portConstraint=eastwest;whiteSpace=wrap;html=1;fontSize=11;fontFamily=Helvetica;" vertex="1" parent="9o_0vOJ_n6I8ADiCMsV1-205">
          <mxGeometry y="104" width="340" height="26" as="geometry" />
        </mxCell>
        <mxCell id="9o_0vOJ_n6I8ADiCMsV1-218" value="io_control(cmd)" style="text;strokeColor=#6c8ebf;fillColor=#dae8fc;align=left;verticalAlign=top;spacingLeft=4;spacingRight=4;overflow=hidden;rotatable=0;points=[[0,0.5],[1,0.5]];portConstraint=eastwest;whiteSpace=wrap;html=1;fontSize=11;fontFamily=Helvetica;" vertex="1" parent="9o_0vOJ_n6I8ADiCMsV1-205">
          <mxGeometry y="130" width="340" height="26" as="geometry" />
        </mxCell>
        <mxCell id="9o_0vOJ_n6I8ADiCMsV1-219" value="miscellaneous" style="text;align=center;verticalAlign=top;spacingLeft=4;spacingRight=4;overflow=hidden;rotatable=0;points=[[0,0.5],[1,0.5]];portConstraint=eastwest;whiteSpace=wrap;html=1;fontSize=11;fontFamily=Helvetica;fillColor=#dae8fc;strokeColor=#6c8ebf;fontStyle=1" vertex="1" parent="9o_0vOJ_n6I8ADiCMsV1-205">
          <mxGeometry y="156" width="340" height="26" as="geometry" />
        </mxCell>
        <mxCell id="9o_0vOJ_n6I8ADiCMsV1-220" value="..." style="text;strokeColor=#6c8ebf;fillColor=#dae8fc;align=left;verticalAlign=top;spacingLeft=4;spacingRight=4;overflow=hidden;rotatable=0;points=[[0,0.5],[1,0.5]];portConstraint=eastwest;whiteSpace=wrap;html=1;fontSize=11;fontFamily=Helvetica;" vertex="1" parent="9o_0vOJ_n6I8ADiCMsV1-205">
          <mxGeometry y="182" width="340" height="26" as="geometry" />
        </mxCell>
      </root>
    </mxGraphModel>
  </diagram>
</mxfile>
